ISO-10303-21;
HEADER;
/* Generated by software containing ST-Developer
 * from STEP Tools, Inc. (www.steptools.com) 
 */

FILE_DESCRIPTION(
/* description */ (''),
/* implementation_level */ '2;1');

FILE_NAME(
/* name */ 'coxa.step',
/* time_stamp */ '2026-08-23T20:03:45+05:30',
/* author */ (''),
/* organization */ (''),
/* preprocessor_version */ 'ST-DEVELOPER v20.1',
/* originating_system */ 'Autodesk Translation Framework v15.8.0.0',
/* authorisation */ '');

FILE_SCHEMA (('AUTOMOTIVE_DESIGN { 1 0 10303 214 3 1 1 }'));
ENDSEC;

DATA;
#10=MECHANICAL_DESIGN_GEOMETRIC_PRESENTATION_REPRESENTATION('',(#13),#819);
#11=SHAPE_REPRESENTATION_RELATIONSHIP('SRR','None',#826,#12);
#12=ADVANCED_BREP_SHAPE_REPRESENTATION('',(#14),#818);
#13=STYLED_ITEM('',(#835),#14);
#14=MANIFOLD_SOLID_BREP('Body1',#479);
#15=B_SPLINE_CURVE_WITH_KNOTS('',3,(#729,#730,#731,#732,#733,#734,#735,
#736,#737,#738),.UNSPECIFIED.,.F.,.F.,(4,2,2,2,4),(0.,0.113074352150928,
0.226148704301857,0.341390034737727,0.456631365173598),.UNSPECIFIED.);
#16=B_SPLINE_CURVE_WITH_KNOTS('',3,(#741,#742,#743,#744,#745,#746,#747,
#748,#749,#750),.UNSPECIFIED.,.F.,.F.,(4,2,2,2,4),(-0.456631365173598,-0.341390034737727,
-0.226148704301857,-0.113074352150928,0.),.UNSPECIFIED.);
#17=FACE_BOUND('',#70,.T.);
#18=FACE_BOUND('',#71,.T.);
#19=FACE_BOUND('',#81,.T.);
#20=FACE_BOUND('',#83,.T.);
#21=FACE_BOUND('',#84,.T.);
#22=FACE_BOUND('',#85,.T.);
#23=FACE_BOUND('',#87,.T.);
#24=FACE_BOUND('',#89,.T.);
#25=FACE_BOUND('',#92,.T.);
#26=PLANE('',#499);
#27=PLANE('',#500);
#28=PLANE('',#502);
#29=PLANE('',#503);
#30=PLANE('',#505);
#31=PLANE('',#515);
#32=PLANE('',#518);
#33=PLANE('',#525);
#34=PLANE('',#526);
#35=PLANE('',#528);
#36=PLANE('',#529);
#37=PLANE('',#530);
#38=PLANE('',#531);
#39=PLANE('',#533);
#40=FACE_OUTER_BOUND('',#63,.T.);
#41=FACE_OUTER_BOUND('',#64,.T.);
#42=FACE_OUTER_BOUND('',#65,.T.);
#43=FACE_OUTER_BOUND('',#66,.T.);
#44=FACE_OUTER_BOUND('',#67,.T.);
#45=FACE_OUTER_BOUND('',#68,.T.);
#46=FACE_OUTER_BOUND('',#69,.T.);
#47=FACE_OUTER_BOUND('',#72,.T.);
#48=FACE_OUTER_BOUND('',#73,.T.);
#49=FACE_OUTER_BOUND('',#74,.T.);
#50=FACE_OUTER_BOUND('',#75,.T.);
#51=FACE_OUTER_BOUND('',#76,.T.);
#52=FACE_OUTER_BOUND('',#77,.T.);
#53=FACE_OUTER_BOUND('',#78,.T.);
#54=FACE_OUTER_BOUND('',#79,.T.);
#55=FACE_OUTER_BOUND('',#80,.T.);
#56=FACE_OUTER_BOUND('',#82,.T.);
#57=FACE_OUTER_BOUND('',#86,.T.);
#58=FACE_OUTER_BOUND('',#88,.T.);
#59=FACE_OUTER_BOUND('',#90,.T.);
#60=FACE_OUTER_BOUND('',#91,.T.);
#61=FACE_OUTER_BOUND('',#93,.T.);
#62=FACE_OUTER_BOUND('',#94,.T.);
#63=EDGE_LOOP('',(#315,#316,#317,#318));
#64=EDGE_LOOP('',(#319,#320,#321,#322));
#65=EDGE_LOOP('',(#323,#324,#325,#326));
#66=EDGE_LOOP('',(#327,#328,#329,#330,#331));
#67=EDGE_LOOP('',(#332,#333,#334,#335));
#68=EDGE_LOOP('',(#336,#337,#338,#339,#340));
#69=EDGE_LOOP('',(#341,#342,#343,#344,#345,#346,#347,#348));
#70=EDGE_LOOP('',(#349));
#71=EDGE_LOOP('',(#350));
#72=EDGE_LOOP('',(#351,#352,#353,#354));
#73=EDGE_LOOP('',(#355,#356,#357,#358));
#74=EDGE_LOOP('',(#359,#360,#361,#362,#363,#364,#365,#366));
#75=EDGE_LOOP('',(#367,#368,#369,#370,#371,#372,#373,#374));
#76=EDGE_LOOP('',(#375,#376,#377,#378,#379));
#77=EDGE_LOOP('',(#380,#381,#382,#383,#384,#385,#386,#387));
#78=EDGE_LOOP('',(#388,#389,#390,#391));
#79=EDGE_LOOP('',(#392,#393,#394,#395));
#80=EDGE_LOOP('',(#396,#397,#398,#399));
#81=EDGE_LOOP('',(#400));
#82=EDGE_LOOP('',(#401,#402,#403,#404,#405,#406,#407,#408,#409,#410,#411,
#412));
#83=EDGE_LOOP('',(#413));
#84=EDGE_LOOP('',(#414));
#85=EDGE_LOOP('',(#415,#416,#417,#418));
#86=EDGE_LOOP('',(#419,#420,#421,#422));
#87=EDGE_LOOP('',(#423));
#88=EDGE_LOOP('',(#424,#425,#426,#427));
#89=EDGE_LOOP('',(#428));
#90=EDGE_LOOP('',(#429,#430,#431,#432));
#91=EDGE_LOOP('',(#433,#434,#435,#436));
#92=EDGE_LOOP('',(#437));
#93=EDGE_LOOP('',(#438,#439,#440,#441,#442));
#94=EDGE_LOOP('',(#443,#444,#445,#446));
#95=LINE('',#669,#141);
#96=LINE('',#675,#142);
#97=LINE('',#680,#143);
#98=LINE('',#682,#144);
#99=LINE('',#684,#145);
#100=LINE('',#685,#146);
#101=LINE('',#688,#147);
#102=LINE('',#690,#148);
#103=LINE('',#692,#149);
#104=LINE('',#696,#150);
#105=LINE('',#698,#151);
#106=LINE('',#699,#152);
#107=LINE('',#702,#153);
#108=LINE('',#704,#154);
#109=LINE('',#707,#155);
#110=LINE('',#711,#156);
#111=LINE('',#714,#157);
#112=LINE('',#719,#158);
#113=LINE('',#725,#159);
#114=LINE('',#740,#160);
#115=LINE('',#754,#161);
#116=LINE('',#756,#162);
#117=LINE('',#758,#163);
#118=LINE('',#759,#164);
#119=LINE('',#761,#165);
#120=LINE('',#763,#166);
#121=LINE('',#764,#167);
#122=LINE('',#768,#168);
#123=LINE('',#771,#169);
#124=LINE('',#773,#170);
#125=LINE('',#775,#171);
#126=LINE('',#777,#172);
#127=LINE('',#779,#173);
#128=LINE('',#781,#174);
#129=LINE('',#782,#175);
#130=LINE('',#787,#176);
#131=LINE('',#794,#177);
#132=LINE('',#796,#178);
#133=LINE('',#799,#179);
#134=LINE('',#801,#180);
#135=LINE('',#802,#181);
#136=LINE('',#803,#182);
#137=LINE('',#806,#183);
#138=LINE('',#809,#184);
#139=LINE('',#811,#185);
#140=LINE('',#814,#186);
#141=VECTOR('',#540,1.);
#142=VECTOR('',#547,1.);
#143=VECTOR('',#552,10.);
#144=VECTOR('',#553,10.);
#145=VECTOR('',#554,10.);
#146=VECTOR('',#555,10.);
#147=VECTOR('',#558,10.);
#148=VECTOR('',#559,10.);
#149=VECTOR('',#560,10.);
#150=VECTOR('',#565,10.);
#151=VECTOR('',#566,10.);
#152=VECTOR('',#567,10.);
#153=VECTOR('',#570,10.);
#154=VECTOR('',#573,10.);
#155=VECTOR('',#576,10.);
#156=VECTOR('',#579,10.);
#157=VECTOR('',#582,10.);
#158=VECTOR('',#587,3.5);
#159=VECTOR('',#594,3.5);
#160=VECTOR('',#599,10.);
#161=VECTOR('',#602,10.);
#162=VECTOR('',#603,10.);
#163=VECTOR('',#604,10.);
#164=VECTOR('',#605,10.);
#165=VECTOR('',#606,10.);
#166=VECTOR('',#607,10.);
#167=VECTOR('',#608,10.);
#168=VECTOR('',#613,10.);
#169=VECTOR('',#616,10.);
#170=VECTOR('',#617,10.);
#171=VECTOR('',#618,10.);
#172=VECTOR('',#619,10.);
#173=VECTOR('',#620,10.);
#174=VECTOR('',#621,10.);
#175=VECTOR('',#622,10.);
#176=VECTOR('',#627,10.);
#177=VECTOR('',#636,10.);
#178=VECTOR('',#639,10.);
#179=VECTOR('',#642,10.);
#180=VECTOR('',#643,10.);
#181=VECTOR('',#644,10.);
#182=VECTOR('',#645,10.);
#183=VECTOR('',#648,10.);
#184=VECTOR('',#653,10.);
#185=VECTOR('',#656,10.);
#186=VECTOR('',#661,10.);
#187=CIRCLE('',#494,1.);
#188=CIRCLE('',#495,1.);
#189=CIRCLE('',#497,1.);
#190=CIRCLE('',#498,1.);
#191=CIRCLE('',#501,3.00000004470348);
#192=CIRCLE('',#504,3.00000004470348);
#193=CIRCLE('',#506,9.99999999999999);
#194=CIRCLE('',#507,9.99999999999999);
#195=CIRCLE('',#509,3.5);
#196=CIRCLE('',#510,3.5);
#197=CIRCLE('',#512,3.5);
#198=CIRCLE('',#513,3.5);
#199=CIRCLE('',#517,9.99999999999999);
#200=CIRCLE('',#520,5.00000007450581);
#201=CIRCLE('',#521,5.00000007450581);
#202=CIRCLE('',#523,5.00000007450581);
#203=CIRCLE('',#524,5.00000007450581);
#204=CIRCLE('',#527,9.99999999999999);
#205=VERTEX_POINT('',#666);
#206=VERTEX_POINT('',#668);
#207=VERTEX_POINT('',#672);
#208=VERTEX_POINT('',#674);
#209=VERTEX_POINT('',#678);
#210=VERTEX_POINT('',#679);
#211=VERTEX_POINT('',#681);
#212=VERTEX_POINT('',#683);
#213=VERTEX_POINT('',#687);
#214=VERTEX_POINT('',#689);
#215=VERTEX_POINT('',#691);
#216=VERTEX_POINT('',#695);
#217=VERTEX_POINT('',#697);
#218=VERTEX_POINT('',#701);
#219=VERTEX_POINT('',#706);
#220=VERTEX_POINT('',#708);
#221=VERTEX_POINT('',#710);
#222=VERTEX_POINT('',#712);
#223=VERTEX_POINT('',#716);
#224=VERTEX_POINT('',#718);
#225=VERTEX_POINT('',#722);
#226=VERTEX_POINT('',#724);
#227=VERTEX_POINT('',#728);
#228=VERTEX_POINT('',#739);
#229=VERTEX_POINT('',#752);
#230=VERTEX_POINT('',#753);
#231=VERTEX_POINT('',#755);
#232=VERTEX_POINT('',#757);
#233=VERTEX_POINT('',#760);
#234=VERTEX_POINT('',#762);
#235=VERTEX_POINT('',#766);
#236=VERTEX_POINT('',#770);
#237=VERTEX_POINT('',#772);
#238=VERTEX_POINT('',#774);
#239=VERTEX_POINT('',#776);
#240=VERTEX_POINT('',#778);
#241=VERTEX_POINT('',#780);
#242=VERTEX_POINT('',#784);
#243=VERTEX_POINT('',#786);
#244=VERTEX_POINT('',#790);
#245=VERTEX_POINT('',#792);
#246=VERTEX_POINT('',#798);
#247=VERTEX_POINT('',#800);
#248=VERTEX_POINT('',#804);
#249=EDGE_CURVE('',#205,#205,#187,.T.);
#250=EDGE_CURVE('',#205,#206,#95,.T.);
#251=EDGE_CURVE('',#206,#206,#188,.T.);
#252=EDGE_CURVE('',#207,#207,#189,.T.);
#253=EDGE_CURVE('',#207,#208,#96,.T.);
#254=EDGE_CURVE('',#208,#208,#190,.T.);
#255=EDGE_CURVE('',#209,#210,#97,.T.);
#256=EDGE_CURVE('',#211,#209,#98,.T.);
#257=EDGE_CURVE('',#212,#211,#99,.T.);
#258=EDGE_CURVE('',#212,#210,#100,.T.);
#259=EDGE_CURVE('',#210,#213,#101,.T.);
#260=EDGE_CURVE('',#214,#212,#102,.T.);
#261=EDGE_CURVE('',#214,#215,#103,.T.);
#262=EDGE_CURVE('',#213,#215,#191,.T.);
#263=EDGE_CURVE('',#215,#216,#104,.T.);
#264=EDGE_CURVE('',#217,#214,#105,.T.);
#265=EDGE_CURVE('',#217,#216,#106,.T.);
#266=EDGE_CURVE('',#218,#209,#107,.T.);
#267=EDGE_CURVE('',#216,#218,#192,.T.);
#268=EDGE_CURVE('',#211,#217,#108,.T.);
#269=EDGE_CURVE('',#219,#213,#109,.T.);
#270=EDGE_CURVE('',#220,#219,#193,.T.);
#271=EDGE_CURVE('',#221,#220,#110,.T.);
#272=EDGE_CURVE('',#222,#221,#194,.T.);
#273=EDGE_CURVE('',#218,#222,#111,.T.);
#274=EDGE_CURVE('',#223,#223,#195,.T.);
#275=EDGE_CURVE('',#223,#224,#112,.T.);
#276=EDGE_CURVE('',#224,#224,#196,.T.);
#277=EDGE_CURVE('',#225,#225,#197,.T.);
#278=EDGE_CURVE('',#225,#226,#113,.T.);
#279=EDGE_CURVE('',#226,#226,#198,.T.);
#280=EDGE_CURVE('',#227,#222,#15,.T.);
#281=EDGE_CURVE('',#228,#227,#114,.T.);
#282=EDGE_CURVE('',#219,#228,#16,.T.);
#283=EDGE_CURVE('',#229,#230,#115,.T.);
#284=EDGE_CURVE('',#231,#229,#116,.T.);
#285=EDGE_CURVE('',#232,#231,#117,.T.);
#286=EDGE_CURVE('',#232,#228,#118,.T.);
#287=EDGE_CURVE('',#233,#227,#119,.T.);
#288=EDGE_CURVE('',#234,#233,#120,.T.);
#289=EDGE_CURVE('',#234,#230,#121,.T.);
#290=EDGE_CURVE('',#232,#235,#199,.T.);
#291=EDGE_CURVE('',#235,#220,#122,.T.);
#292=EDGE_CURVE('',#230,#236,#123,.T.);
#293=EDGE_CURVE('',#236,#237,#124,.T.);
#294=EDGE_CURVE('',#237,#238,#125,.T.);
#295=EDGE_CURVE('',#238,#239,#126,.T.);
#296=EDGE_CURVE('',#239,#240,#127,.T.);
#297=EDGE_CURVE('',#240,#241,#128,.T.);
#298=EDGE_CURVE('',#241,#229,#129,.T.);
#299=EDGE_CURVE('',#242,#236,#200,.T.);
#300=EDGE_CURVE('',#243,#242,#130,.T.);
#301=EDGE_CURVE('',#237,#243,#201,.T.);
#302=EDGE_CURVE('',#241,#244,#202,.T.);
#303=EDGE_CURVE('',#245,#240,#203,.T.);
#304=EDGE_CURVE('',#244,#245,#131,.T.);
#305=EDGE_CURVE('',#231,#244,#132,.T.);
#306=EDGE_CURVE('',#245,#246,#133,.T.);
#307=EDGE_CURVE('',#246,#247,#134,.T.);
#308=EDGE_CURVE('',#247,#243,#135,.T.);
#309=EDGE_CURVE('',#242,#234,#136,.T.);
#310=EDGE_CURVE('',#248,#233,#204,.T.);
#311=EDGE_CURVE('',#248,#235,#137,.T.);
#312=EDGE_CURVE('',#246,#239,#138,.T.);
#313=EDGE_CURVE('',#247,#238,#139,.T.);
#314=EDGE_CURVE('',#248,#221,#140,.T.);
#315=ORIENTED_EDGE('',*,*,#249,.F.);
#316=ORIENTED_EDGE('',*,*,#250,.T.);
#317=ORIENTED_EDGE('',*,*,#251,.F.);
#318=ORIENTED_EDGE('',*,*,#250,.F.);
#319=ORIENTED_EDGE('',*,*,#252,.F.);
#320=ORIENTED_EDGE('',*,*,#253,.T.);
#321=ORIENTED_EDGE('',*,*,#254,.F.);
#322=ORIENTED_EDGE('',*,*,#253,.F.);
#323=ORIENTED_EDGE('',*,*,#255,.F.);
#324=ORIENTED_EDGE('',*,*,#256,.F.);
#325=ORIENTED_EDGE('',*,*,#257,.F.);
#326=ORIENTED_EDGE('',*,*,#258,.T.);
#327=ORIENTED_EDGE('',*,*,#259,.F.);
#328=ORIENTED_EDGE('',*,*,#258,.F.);
#329=ORIENTED_EDGE('',*,*,#260,.F.);
#330=ORIENTED_EDGE('',*,*,#261,.T.);
#331=ORIENTED_EDGE('',*,*,#262,.F.);
#332=ORIENTED_EDGE('',*,*,#263,.F.);
#333=ORIENTED_EDGE('',*,*,#261,.F.);
#334=ORIENTED_EDGE('',*,*,#264,.F.);
#335=ORIENTED_EDGE('',*,*,#265,.T.);
#336=ORIENTED_EDGE('',*,*,#266,.F.);
#337=ORIENTED_EDGE('',*,*,#267,.F.);
#338=ORIENTED_EDGE('',*,*,#265,.F.);
#339=ORIENTED_EDGE('',*,*,#268,.F.);
#340=ORIENTED_EDGE('',*,*,#256,.T.);
#341=ORIENTED_EDGE('',*,*,#266,.T.);
#342=ORIENTED_EDGE('',*,*,#255,.T.);
#343=ORIENTED_EDGE('',*,*,#259,.T.);
#344=ORIENTED_EDGE('',*,*,#269,.F.);
#345=ORIENTED_EDGE('',*,*,#270,.F.);
#346=ORIENTED_EDGE('',*,*,#271,.F.);
#347=ORIENTED_EDGE('',*,*,#272,.F.);
#348=ORIENTED_EDGE('',*,*,#273,.F.);
#349=ORIENTED_EDGE('',*,*,#251,.T.);
#350=ORIENTED_EDGE('',*,*,#254,.T.);
#351=ORIENTED_EDGE('',*,*,#274,.F.);
#352=ORIENTED_EDGE('',*,*,#275,.T.);
#353=ORIENTED_EDGE('',*,*,#276,.F.);
#354=ORIENTED_EDGE('',*,*,#275,.F.);
#355=ORIENTED_EDGE('',*,*,#277,.F.);
#356=ORIENTED_EDGE('',*,*,#278,.T.);
#357=ORIENTED_EDGE('',*,*,#279,.F.);
#358=ORIENTED_EDGE('',*,*,#278,.F.);
#359=ORIENTED_EDGE('',*,*,#267,.T.);
#360=ORIENTED_EDGE('',*,*,#273,.T.);
#361=ORIENTED_EDGE('',*,*,#280,.F.);
#362=ORIENTED_EDGE('',*,*,#281,.F.);
#363=ORIENTED_EDGE('',*,*,#282,.F.);
#364=ORIENTED_EDGE('',*,*,#269,.T.);
#365=ORIENTED_EDGE('',*,*,#262,.T.);
#366=ORIENTED_EDGE('',*,*,#263,.T.);
#367=ORIENTED_EDGE('',*,*,#283,.F.);
#368=ORIENTED_EDGE('',*,*,#284,.F.);
#369=ORIENTED_EDGE('',*,*,#285,.F.);
#370=ORIENTED_EDGE('',*,*,#286,.T.);
#371=ORIENTED_EDGE('',*,*,#281,.T.);
#372=ORIENTED_EDGE('',*,*,#287,.F.);
#373=ORIENTED_EDGE('',*,*,#288,.F.);
#374=ORIENTED_EDGE('',*,*,#289,.T.);
#375=ORIENTED_EDGE('',*,*,#270,.T.);
#376=ORIENTED_EDGE('',*,*,#282,.T.);
#377=ORIENTED_EDGE('',*,*,#286,.F.);
#378=ORIENTED_EDGE('',*,*,#290,.T.);
#379=ORIENTED_EDGE('',*,*,#291,.T.);
#380=ORIENTED_EDGE('',*,*,#283,.T.);
#381=ORIENTED_EDGE('',*,*,#292,.T.);
#382=ORIENTED_EDGE('',*,*,#293,.T.);
#383=ORIENTED_EDGE('',*,*,#294,.T.);
#384=ORIENTED_EDGE('',*,*,#295,.T.);
#385=ORIENTED_EDGE('',*,*,#296,.T.);
#386=ORIENTED_EDGE('',*,*,#297,.T.);
#387=ORIENTED_EDGE('',*,*,#298,.T.);
#388=ORIENTED_EDGE('',*,*,#299,.F.);
#389=ORIENTED_EDGE('',*,*,#300,.F.);
#390=ORIENTED_EDGE('',*,*,#301,.F.);
#391=ORIENTED_EDGE('',*,*,#293,.F.);
#392=ORIENTED_EDGE('',*,*,#302,.F.);
#393=ORIENTED_EDGE('',*,*,#297,.F.);
#394=ORIENTED_EDGE('',*,*,#303,.F.);
#395=ORIENTED_EDGE('',*,*,#304,.F.);
#396=ORIENTED_EDGE('',*,*,#302,.T.);
#397=ORIENTED_EDGE('',*,*,#305,.F.);
#398=ORIENTED_EDGE('',*,*,#284,.T.);
#399=ORIENTED_EDGE('',*,*,#298,.F.);
#400=ORIENTED_EDGE('',*,*,#277,.T.);
#401=ORIENTED_EDGE('',*,*,#304,.T.);
#402=ORIENTED_EDGE('',*,*,#306,.T.);
#403=ORIENTED_EDGE('',*,*,#307,.T.);
#404=ORIENTED_EDGE('',*,*,#308,.T.);
#405=ORIENTED_EDGE('',*,*,#300,.T.);
#406=ORIENTED_EDGE('',*,*,#309,.T.);
#407=ORIENTED_EDGE('',*,*,#288,.T.);
#408=ORIENTED_EDGE('',*,*,#310,.F.);
#409=ORIENTED_EDGE('',*,*,#311,.T.);
#410=ORIENTED_EDGE('',*,*,#290,.F.);
#411=ORIENTED_EDGE('',*,*,#285,.T.);
#412=ORIENTED_EDGE('',*,*,#305,.T.);
#413=ORIENTED_EDGE('',*,*,#249,.T.);
#414=ORIENTED_EDGE('',*,*,#252,.T.);
#415=ORIENTED_EDGE('',*,*,#260,.T.);
#416=ORIENTED_EDGE('',*,*,#257,.T.);
#417=ORIENTED_EDGE('',*,*,#268,.T.);
#418=ORIENTED_EDGE('',*,*,#264,.T.);
#419=ORIENTED_EDGE('',*,*,#299,.T.);
#420=ORIENTED_EDGE('',*,*,#292,.F.);
#421=ORIENTED_EDGE('',*,*,#289,.F.);
#422=ORIENTED_EDGE('',*,*,#309,.F.);
#423=ORIENTED_EDGE('',*,*,#276,.T.);
#424=ORIENTED_EDGE('',*,*,#303,.T.);
#425=ORIENTED_EDGE('',*,*,#296,.F.);
#426=ORIENTED_EDGE('',*,*,#312,.F.);
#427=ORIENTED_EDGE('',*,*,#306,.F.);
#428=ORIENTED_EDGE('',*,*,#279,.T.);
#429=ORIENTED_EDGE('',*,*,#307,.F.);
#430=ORIENTED_EDGE('',*,*,#312,.T.);
#431=ORIENTED_EDGE('',*,*,#295,.F.);
#432=ORIENTED_EDGE('',*,*,#313,.F.);
#433=ORIENTED_EDGE('',*,*,#301,.T.);
#434=ORIENTED_EDGE('',*,*,#308,.F.);
#435=ORIENTED_EDGE('',*,*,#313,.T.);
#436=ORIENTED_EDGE('',*,*,#294,.F.);
#437=ORIENTED_EDGE('',*,*,#274,.T.);
#438=ORIENTED_EDGE('',*,*,#272,.T.);
#439=ORIENTED_EDGE('',*,*,#314,.F.);
#440=ORIENTED_EDGE('',*,*,#310,.T.);
#441=ORIENTED_EDGE('',*,*,#287,.T.);
#442=ORIENTED_EDGE('',*,*,#280,.T.);
#443=ORIENTED_EDGE('',*,*,#271,.T.);
#444=ORIENTED_EDGE('',*,*,#291,.F.);
#445=ORIENTED_EDGE('',*,*,#311,.F.);
#446=ORIENTED_EDGE('',*,*,#314,.T.);
#447=CYLINDRICAL_SURFACE('',#493,1.);
#448=CYLINDRICAL_SURFACE('',#496,1.);
#449=CYLINDRICAL_SURFACE('',#508,3.5);
#450=CYLINDRICAL_SURFACE('',#511,3.5);
#451=CYLINDRICAL_SURFACE('',#514,3.00000004470348);
#452=CYLINDRICAL_SURFACE('',#516,9.99999999999999);
#453=CYLINDRICAL_SURFACE('',#519,5.00000007450581);
#454=CYLINDRICAL_SURFACE('',#522,5.00000007450581);
#455=CYLINDRICAL_SURFACE('',#532,9.99999999999999);
#456=ADVANCED_FACE('',(#40),#447,.F.);
#457=ADVANCED_FACE('',(#41),#448,.F.);
#458=ADVANCED_FACE('',(#42),#26,.F.);
#459=ADVANCED_FACE('',(#43),#27,.F.);
#460=ADVANCED_FACE('',(#44),#28,.F.);
#461=ADVANCED_FACE('',(#45),#29,.F.);
#462=ADVANCED_FACE('',(#46,#17,#18),#30,.F.);
#463=ADVANCED_FACE('',(#47),#449,.F.);
#464=ADVANCED_FACE('',(#48),#450,.F.);
#465=ADVANCED_FACE('',(#49),#451,.F.);
#466=ADVANCED_FACE('',(#50),#31,.T.);
#467=ADVANCED_FACE('',(#51),#452,.T.);
#468=ADVANCED_FACE('',(#52),#32,.T.);
#469=ADVANCED_FACE('',(#53),#453,.T.);
#470=ADVANCED_FACE('',(#54),#454,.T.);
#471=ADVANCED_FACE('',(#55,#19),#33,.T.);
#472=ADVANCED_FACE('',(#56,#20,#21,#22),#34,.F.);
#473=ADVANCED_FACE('',(#57,#23),#35,.T.);
#474=ADVANCED_FACE('',(#58,#24),#36,.T.);
#475=ADVANCED_FACE('',(#59),#37,.T.);
#476=ADVANCED_FACE('',(#60,#25),#38,.T.);
#477=ADVANCED_FACE('',(#61),#455,.T.);
#478=ADVANCED_FACE('',(#62),#39,.T.);
#479=CLOSED_SHELL('',(#456,#457,#458,#459,#460,#461,#462,#463,#464,#465,
#466,#467,#468,#469,#470,#471,#472,#473,#474,#475,#476,#477,#478));
#480=DERIVED_UNIT_ELEMENT(#482,1.);
#481=DERIVED_UNIT_ELEMENT(#821,-3.);
#482=(
MASS_UNIT()
NAMED_UNIT(*)
SI_UNIT(.KILO.,.GRAM.)
);
#483=DERIVED_UNIT((#480,#481));
#484=MEASURE_REPRESENTATION_ITEM('density measure',
POSITIVE_RATIO_MEASURE(7850.),#483);
#485=PROPERTY_DEFINITION_REPRESENTATION(#490,#487);
#486=PROPERTY_DEFINITION_REPRESENTATION(#491,#488);
#487=REPRESENTATION('material name',(#489),#818);
#488=REPRESENTATION('density',(#484),#818);
#489=DESCRIPTIVE_REPRESENTATION_ITEM('Steel','Steel');
#490=PROPERTY_DEFINITION('material property','material name',#828);
#491=PROPERTY_DEFINITION('material property','density of part',#828);
#492=AXIS2_PLACEMENT_3D('',#664,#534,#535);
#493=AXIS2_PLACEMENT_3D('',#665,#536,#537);
#494=AXIS2_PLACEMENT_3D('',#667,#538,#539);
#495=AXIS2_PLACEMENT_3D('',#670,#541,#542);
#496=AXIS2_PLACEMENT_3D('',#671,#543,#544);
#497=AXIS2_PLACEMENT_3D('',#673,#545,#546);
#498=AXIS2_PLACEMENT_3D('',#676,#548,#549);
#499=AXIS2_PLACEMENT_3D('',#677,#550,#551);
#500=AXIS2_PLACEMENT_3D('',#686,#556,#557);
#501=AXIS2_PLACEMENT_3D('',#693,#561,#562);
#502=AXIS2_PLACEMENT_3D('',#694,#563,#564);
#503=AXIS2_PLACEMENT_3D('',#700,#568,#569);
#504=AXIS2_PLACEMENT_3D('',#703,#571,#572);
#505=AXIS2_PLACEMENT_3D('',#705,#574,#575);
#506=AXIS2_PLACEMENT_3D('',#709,#577,#578);
#507=AXIS2_PLACEMENT_3D('',#713,#580,#581);
#508=AXIS2_PLACEMENT_3D('',#715,#583,#584);
#509=AXIS2_PLACEMENT_3D('',#717,#585,#586);
#510=AXIS2_PLACEMENT_3D('',#720,#588,#589);
#511=AXIS2_PLACEMENT_3D('',#721,#590,#591);
#512=AXIS2_PLACEMENT_3D('',#723,#592,#593);
#513=AXIS2_PLACEMENT_3D('',#726,#595,#596);
#514=AXIS2_PLACEMENT_3D('',#727,#597,#598);
#515=AXIS2_PLACEMENT_3D('',#751,#600,#601);
#516=AXIS2_PLACEMENT_3D('',#765,#609,#610);
#517=AXIS2_PLACEMENT_3D('',#767,#611,#612);
#518=AXIS2_PLACEMENT_3D('',#769,#614,#615);
#519=AXIS2_PLACEMENT_3D('',#783,#623,#624);
#520=AXIS2_PLACEMENT_3D('',#785,#625,#626);
#521=AXIS2_PLACEMENT_3D('',#788,#628,#629);
#522=AXIS2_PLACEMENT_3D('',#789,#630,#631);
#523=AXIS2_PLACEMENT_3D('',#791,#632,#633);
#524=AXIS2_PLACEMENT_3D('',#793,#634,#635);
#525=AXIS2_PLACEMENT_3D('',#795,#637,#638);
#526=AXIS2_PLACEMENT_3D('',#797,#640,#641);
#527=AXIS2_PLACEMENT_3D('',#805,#646,#647);
#528=AXIS2_PLACEMENT_3D('',#807,#649,#650);
#529=AXIS2_PLACEMENT_3D('',#808,#651,#652);
#530=AXIS2_PLACEMENT_3D('',#810,#654,#655);
#531=AXIS2_PLACEMENT_3D('',#812,#657,#658);
#532=AXIS2_PLACEMENT_3D('',#813,#659,#660);
#533=AXIS2_PLACEMENT_3D('',#815,#662,#663);
#534=DIRECTION('axis',(0.,0.,1.));
#535=DIRECTION('refdir',(1.,0.,0.));
#536=DIRECTION('center_axis',(0.,0.,1.));
#537=DIRECTION('ref_axis',(1.,0.,0.));
#538=DIRECTION('center_axis',(0.,0.,1.));
#539=DIRECTION('ref_axis',(1.,0.,0.));
#540=DIRECTION('',(0.,0.,1.));
#541=DIRECTION('center_axis',(0.,0.,-1.));
#542=DIRECTION('ref_axis',(1.,0.,0.));
#543=DIRECTION('center_axis',(0.,0.,1.));
#544=DIRECTION('ref_axis',(1.,0.,0.));
#545=DIRECTION('center_axis',(0.,0.,1.));
#546=DIRECTION('ref_axis',(1.,0.,0.));
#547=DIRECTION('',(0.,0.,1.));
#548=DIRECTION('center_axis',(0.,0.,-1.));
#549=DIRECTION('ref_axis',(1.,0.,0.));
#550=DIRECTION('center_axis',(0.,-1.,0.));
#551=DIRECTION('ref_axis',(1.,0.,0.));
#552=DIRECTION('',(-1.,0.,0.));
#553=DIRECTION('',(0.,0.,1.));
#554=DIRECTION('',(1.,0.,0.));
#555=DIRECTION('',(0.,0.,1.));
#556=DIRECTION('center_axis',(-1.,0.,0.));
#557=DIRECTION('ref_axis',(0.,-1.,0.));
#558=DIRECTION('',(0.,1.,0.));
#559=DIRECTION('',(0.,-1.,0.));
#560=DIRECTION('',(0.,0.,1.));
#561=DIRECTION('center_axis',(1.,0.,0.));
#562=DIRECTION('ref_axis',(0.,0.,-1.));
#563=DIRECTION('center_axis',(0.,1.,0.));
#564=DIRECTION('ref_axis',(-1.,0.,0.));
#565=DIRECTION('',(1.,0.,0.));
#566=DIRECTION('',(-1.,0.,0.));
#567=DIRECTION('',(0.,0.,1.));
#568=DIRECTION('center_axis',(1.,0.,0.));
#569=DIRECTION('ref_axis',(0.,1.,0.));
#570=DIRECTION('',(0.,-1.,0.));
#571=DIRECTION('center_axis',(-1.,0.,0.));
#572=DIRECTION('ref_axis',(0.,0.,-1.));
#573=DIRECTION('',(0.,1.,0.));
#574=DIRECTION('center_axis',(0.,0.,-1.));
#575=DIRECTION('ref_axis',(0.,1.,0.));
#576=DIRECTION('',(1.,0.,0.));
#577=DIRECTION('center_axis',(0.,0.,-1.));
#578=DIRECTION('ref_axis',(-1.,7.7715611723761E-16,0.));
#579=DIRECTION('',(-1.,-3.41607071578411E-16,0.));
#580=DIRECTION('center_axis',(0.,0.,-1.));
#581=DIRECTION('ref_axis',(-4.44089209850063E-16,-1.,0.));
#582=DIRECTION('',(1.,0.,0.));
#583=DIRECTION('center_axis',(1.,0.,0.));
#584=DIRECTION('ref_axis',(0.,1.,0.));
#585=DIRECTION('center_axis',(1.,0.,0.));
#586=DIRECTION('ref_axis',(0.,1.,0.));
#587=DIRECTION('',(1.,0.,0.));
#588=DIRECTION('center_axis',(-1.,0.,0.));
#589=DIRECTION('ref_axis',(0.,1.,0.));
#590=DIRECTION('center_axis',(1.,0.,0.));
#591=DIRECTION('ref_axis',(0.,1.,0.));
#592=DIRECTION('center_axis',(1.,0.,0.));
#593=DIRECTION('ref_axis',(0.,1.,0.));
#594=DIRECTION('',(1.,0.,0.));
#595=DIRECTION('center_axis',(-1.,0.,0.));
#596=DIRECTION('ref_axis',(0.,1.,0.));
#597=DIRECTION('center_axis',(1.,0.,0.));
#598=DIRECTION('ref_axis',(0.,0.,-1.));
#599=DIRECTION('',(1.,0.,0.));
#600=DIRECTION('center_axis',(0.,-1.,0.));
#601=DIRECTION('ref_axis',(1.,0.,0.));
#602=DIRECTION('',(1.,0.,0.));
#603=DIRECTION('',(0.,0.,1.));
#604=DIRECTION('',(-1.,0.,0.));
#605=DIRECTION('',(0.,0.,1.));
#606=DIRECTION('',(0.,0.,1.));
#607=DIRECTION('',(-1.,0.,0.));
#608=DIRECTION('',(0.,0.,1.));
#609=DIRECTION('center_axis',(0.,0.,1.));
#610=DIRECTION('ref_axis',(-1.,7.7715611723761E-16,0.));
#611=DIRECTION('center_axis',(0.,0.,1.));
#612=DIRECTION('ref_axis',(-1.,7.7715611723761E-16,0.));
#613=DIRECTION('',(0.,0.,1.));
#614=DIRECTION('center_axis',(0.,0.,1.));
#615=DIRECTION('ref_axis',(1.,0.,0.));
#616=DIRECTION('',(0.,1.,0.));
#617=DIRECTION('',(-1.,0.,0.));
#618=DIRECTION('',(0.,-1.,0.));
#619=DIRECTION('',(-1.,0.,0.));
#620=DIRECTION('',(0.,1.,0.));
#621=DIRECTION('',(-1.,0.,0.));
#622=DIRECTION('',(0.,-1.,0.));
#623=DIRECTION('center_axis',(1.,0.,0.));
#624=DIRECTION('ref_axis',(0.,0.,-1.));
#625=DIRECTION('center_axis',(1.,0.,0.));
#626=DIRECTION('ref_axis',(0.,0.,-1.));
#627=DIRECTION('',(1.,0.,0.));
#628=DIRECTION('center_axis',(-1.,0.,0.));
#629=DIRECTION('ref_axis',(0.,0.,-1.));
#630=DIRECTION('center_axis',(1.,0.,0.));
#631=DIRECTION('ref_axis',(0.,0.,-1.));
#632=DIRECTION('center_axis',(-1.,0.,0.));
#633=DIRECTION('ref_axis',(0.,0.,-1.));
#634=DIRECTION('center_axis',(1.,0.,0.));
#635=DIRECTION('ref_axis',(0.,0.,-1.));
#636=DIRECTION('',(1.,0.,0.));
#637=DIRECTION('center_axis',(-1.,0.,0.));
#638=DIRECTION('ref_axis',(0.,-1.,0.));
#639=DIRECTION('',(0.,1.,0.));
#640=DIRECTION('center_axis',(0.,0.,1.));
#641=DIRECTION('ref_axis',(1.,0.,0.));
#642=DIRECTION('',(0.,-1.,0.));
#643=DIRECTION('',(1.,0.,0.));
#644=DIRECTION('',(0.,1.,0.));
#645=DIRECTION('',(0.,-1.,0.));
#646=DIRECTION('center_axis',(0.,0.,1.));
#647=DIRECTION('ref_axis',(-4.44089209850063E-16,-1.,0.));
#648=DIRECTION('',(-1.,-3.41607071578411E-16,0.));
#649=DIRECTION('center_axis',(1.,0.,0.));
#650=DIRECTION('ref_axis',(0.,1.,0.));
#651=DIRECTION('center_axis',(1.,0.,0.));
#652=DIRECTION('ref_axis',(0.,1.,0.));
#653=DIRECTION('',(0.,0.,1.));
#654=DIRECTION('center_axis',(0.,1.,0.));
#655=DIRECTION('ref_axis',(-1.,0.,0.));
#656=DIRECTION('',(0.,0.,1.));
#657=DIRECTION('center_axis',(-1.,0.,0.));
#658=DIRECTION('ref_axis',(0.,-1.,0.));
#659=DIRECTION('center_axis',(0.,0.,1.));
#660=DIRECTION('ref_axis',(-4.44089209850063E-16,-1.,0.));
#661=DIRECTION('',(0.,0.,1.));
#662=DIRECTION('center_axis',(3.41607071578411E-16,-1.,0.));
#663=DIRECTION('ref_axis',(1.,3.41607071578411E-16,0.));
#664=CARTESIAN_POINT('',(0.,0.,0.));
#665=CARTESIAN_POINT('Origin',(2.00000002980232,-10.0000001490116,0.));
#666=CARTESIAN_POINT('',(1.00000002980232,-10.0000001490116,0.));
#667=CARTESIAN_POINT('Origin',(2.00000002980232,-10.0000001490116,0.));
#668=CARTESIAN_POINT('',(1.00000002980232,-10.0000001490116,2.00000002980232));
#669=CARTESIAN_POINT('',(1.00000002980232,-10.0000001490116,0.));
#670=CARTESIAN_POINT('Origin',(2.00000002980232,-10.0000001490116,2.00000002980232));
#671=CARTESIAN_POINT('Origin',(25.000000372529,-10.0000001490116,0.));
#672=CARTESIAN_POINT('',(24.000000372529,-10.0000001490116,0.));
#673=CARTESIAN_POINT('Origin',(25.000000372529,-10.0000001490116,0.));
#674=CARTESIAN_POINT('',(24.000000372529,-10.0000001490116,2.00000002980232));
#675=CARTESIAN_POINT('',(24.000000372529,-10.0000001490116,0.));
#676=CARTESIAN_POINT('Origin',(25.000000372529,-10.0000001490116,2.00000002980232));
#677=CARTESIAN_POINT('Origin',(4.77428864253919,-13.0000001937151,0.));
#678=CARTESIAN_POINT('',(22.0000003278255,-13.0000001937151,2.00000002980232));
#679=CARTESIAN_POINT('',(4.77428864253919,-13.0000001937151,2.00000002980232));
#680=CARTESIAN_POINT('',(-4.61285567873041,-13.0000001937151,2.00000002980232));
#681=CARTESIAN_POINT('',(22.0000003278255,-13.0000001937151,0.));
#682=CARTESIAN_POINT('',(22.0000003278255,-13.0000001937151,0.));
#683=CARTESIAN_POINT('',(4.77428864253919,-13.0000001937151,0.));
#684=CARTESIAN_POINT('',(9.8871444330283,-13.0000001937151,0.));
#685=CARTESIAN_POINT('',(4.77428864253919,-13.0000001937151,0.));
#686=CARTESIAN_POINT('Origin',(4.77428864253919,-6.42663844163973,0.));
#687=CARTESIAN_POINT('',(4.77428864253919,-8.00000011920929,2.00000002980232));
#688=CARTESIAN_POINT('',(4.77428864253919,-15.7133194070844,2.00000002980232));
#689=CARTESIAN_POINT('',(4.77428864253919,-6.42663844163973,0.));
#690=CARTESIAN_POINT('',(4.77428864253919,0.536680835059491,0.));
#691=CARTESIAN_POINT('',(4.77428864253919,-6.42663844163973,2.4456834731863));
#692=CARTESIAN_POINT('',(4.77428864253919,-6.42663844163973,0.));
#693=CARTESIAN_POINT('Origin',(4.77428864253919,-8.00000011920929,5.00000007450581));
#694=CARTESIAN_POINT('Origin',(22.0000003278255,-6.42663844163973,0.));
#695=CARTESIAN_POINT('',(22.0000003278255,-6.42663844163973,2.4456834731863));
#696=CARTESIAN_POINT('',(-14.,-6.42663844163973,2.4456834731863));
#697=CARTESIAN_POINT('',(22.0000003278255,-6.42663844163973,0.));
#698=CARTESIAN_POINT('',(18.5000002756715,-6.42663844163973,0.));
#699=CARTESIAN_POINT('',(22.0000003278255,-6.42663844163973,0.));
#700=CARTESIAN_POINT('Origin',(22.0000003278255,-13.0000001937151,0.));
#701=CARTESIAN_POINT('',(22.0000003278255,-8.00000011920929,2.00000002980232));
#702=CARTESIAN_POINT('',(22.0000003278255,-19.0000002831221,2.00000002980232));
#703=CARTESIAN_POINT('Origin',(22.0000003278255,-8.00000011920929,5.00000007450581));
#704=CARTESIAN_POINT('',(22.0000003278255,-2.75000004097819,0.));
#705=CARTESIAN_POINT('Origin',(-14.,-25.000000372529,2.00000002980232));
#706=CARTESIAN_POINT('',(-2.53939209167633,-8.00000011920929,2.00000002980232));
#707=CARTESIAN_POINT('',(-14.,-8.00000011920929,2.00000002980232));
#708=CARTESIAN_POINT('',(6.99999995529651,-15.0000002235174,2.00000002980232));
#709=CARTESIAN_POINT('Origin',(6.99999995529651,-5.00000022351743,2.00000002980232));
#710=CARTESIAN_POINT('',(20.0000004470348,-15.0000002235174,2.00000002980232));
#711=CARTESIAN_POINT('',(-3.50000002235175,-15.0000002235174,2.00000002980232));
#712=CARTESIAN_POINT('',(29.5393924940077,-8.00000011920929,2.00000002980232));
#713=CARTESIAN_POINT('Origin',(20.0000004470348,-5.00000022351742,2.00000002980232));
#714=CARTESIAN_POINT('',(-14.,-8.00000011920929,2.00000002980232));
#715=CARTESIAN_POINT('Origin',(-13.,25.000000372529,5.00000007450581));
#716=CARTESIAN_POINT('',(30.0000004470348,21.500000372529,5.00000007450581));
#717=CARTESIAN_POINT('Origin',(30.0000004470348,25.000000372529,5.00000007450581));
#718=CARTESIAN_POINT('',(35.0000005215406,21.500000372529,5.00000007450581));
#719=CARTESIAN_POINT('',(-13.,21.500000372529,5.00000007450581));
#720=CARTESIAN_POINT('Origin',(35.0000005215406,25.000000372529,5.00000007450581));
#721=CARTESIAN_POINT('Origin',(-13.,25.000000372529,5.00000007450581));
#722=CARTESIAN_POINT('',(-5.00000007450581,21.500000372529,5.00000007450581));
#723=CARTESIAN_POINT('Origin',(-5.00000007450581,25.000000372529,5.00000007450581));
#724=CARTESIAN_POINT('',(0.,21.500000372529,5.00000007450581));
#725=CARTESIAN_POINT('',(-13.,21.500000372529,5.00000007450581));
#726=CARTESIAN_POINT('Origin',(0.,25.000000372529,5.00000007450581));
#727=CARTESIAN_POINT('Origin',(-14.,-8.00000011920929,5.00000007450581));
#728=CARTESIAN_POINT('',(30.0000004470348,-5.0000000745058,5.00000007450581));
#729=CARTESIAN_POINT('Ctrl Pts',(30.0000004470348,-5.0000000745058,5.00000007450581));
#730=CARTESIAN_POINT('Ctrl Pts',(30.0000004470348,-5.0000000745058,4.62308556733604));
#731=CARTESIAN_POINT('Ctrl Pts',(30.0008898868132,-5.0753855232978,4.22109201637563));
#732=CARTESIAN_POINT('Ctrl Pts',(29.9938866831476,-5.38172067822945,3.48188249745507));
#733=CARTESIAN_POINT('Ctrl Pts',(29.9847855549182,-5.61267786889787,3.14468157424007));
#734=CARTESIAN_POINT('Ctrl Pts',(29.9374083003147,-6.14977933137244,2.60758011224524));
#735=CARTESIAN_POINT('Ctrl Pts',(29.8951605055365,-6.49279112343734,2.37530266737552));
#736=CARTESIAN_POINT('Ctrl Pts',(29.7543872234705,-7.2348505592322,2.07164537788288));
#737=CARTESIAN_POINT('Ctrl Pts',(29.6546338204367,-7.63355604219511,2.00000002980232));
#738=CARTESIAN_POINT('Ctrl Pts',(29.5393924940077,-8.00000011920928,2.00000002980232));
#739=CARTESIAN_POINT('',(-3.00000004470348,-5.0000000745058,5.00000007450581));
#740=CARTESIAN_POINT('',(-14.,-5.0000000745058,5.00000007450581));
#741=CARTESIAN_POINT('Ctrl Pts',(-2.53939209167633,-8.00000011920929,2.00000002980232));
#742=CARTESIAN_POINT('Ctrl Pts',(-2.65463341810533,-7.63355604219511,2.00000002980232));
#743=CARTESIAN_POINT('Ctrl Pts',(-2.75438682113913,-7.2348505592322,2.07164537788288));
#744=CARTESIAN_POINT('Ctrl Pts',(-2.89516010320518,-6.49279112343734,2.37530266737552));
#745=CARTESIAN_POINT('Ctrl Pts',(-2.93740789798338,-6.14977933137244,2.60758011224524));
#746=CARTESIAN_POINT('Ctrl Pts',(-2.98478515258686,-5.61267786889787,3.14468157424007));
#747=CARTESIAN_POINT('Ctrl Pts',(-2.9938862808163,-5.38172067822945,3.48188249745507));
#748=CARTESIAN_POINT('Ctrl Pts',(-3.00088948448186,-5.0753855232978,4.22109201637563));
#749=CARTESIAN_POINT('Ctrl Pts',(-3.00000004470348,-5.0000000745058,4.62308556733604));
#750=CARTESIAN_POINT('Ctrl Pts',(-3.00000004470348,-5.0000000745058,5.00000007450581));
#751=CARTESIAN_POINT('Origin',(-5.00000007450581,-5.00000007450581,0.));
#752=CARTESIAN_POINT('',(-5.00000007450581,-5.00000007450581,10.));
#753=CARTESIAN_POINT('',(35.0000005215406,-5.00000007450581,10.));
#754=CARTESIAN_POINT('',(35.0000005215406,-5.00000007450581,10.));
#755=CARTESIAN_POINT('',(-5.00000007450581,-5.00000007450581,0.));
#756=CARTESIAN_POINT('',(-5.00000007450581,-5.00000007450581,0.));
#757=CARTESIAN_POINT('',(-3.00000004470348,-5.00000022351742,0.));
#758=CARTESIAN_POINT('',(35.0000005215406,-5.00000007450581,0.));
#759=CARTESIAN_POINT('',(-3.00000004470348,-5.00000022351742,0.));
#760=CARTESIAN_POINT('',(30.0000004470348,-5.00000022351742,0.));
#761=CARTESIAN_POINT('',(30.0000004470348,-5.00000022351742,0.));
#762=CARTESIAN_POINT('',(35.0000005215406,-5.00000007450581,0.));
#763=CARTESIAN_POINT('',(35.0000005215406,-5.00000007450581,0.));
#764=CARTESIAN_POINT('',(35.0000005215406,-5.00000007450581,0.));
#765=CARTESIAN_POINT('Origin',(6.99999995529651,-5.00000022351743,0.));
#766=CARTESIAN_POINT('',(6.99999995529651,-15.0000002235174,0.));
#767=CARTESIAN_POINT('Origin',(6.99999995529651,-5.00000022351743,0.));
#768=CARTESIAN_POINT('',(6.99999995529651,-15.0000002235174,0.));
#769=CARTESIAN_POINT('Origin',(15.0000002235174,7.50000011175871,10.));
#770=CARTESIAN_POINT('',(35.0000005215406,25.000000372529,10.0000001490116));
#771=CARTESIAN_POINT('',(35.0000005215406,12.0000001788139,10.));
#772=CARTESIAN_POINT('',(30.0000004470348,25.000000372529,10.0000001490116));
#773=CARTESIAN_POINT('',(-23.,25.000000372529,10.));
#774=CARTESIAN_POINT('',(30.0000004470348,0.,10.));
#775=CARTESIAN_POINT('',(30.0000004470348,0.,10.));
#776=CARTESIAN_POINT('',(0.,0.,10.));
#777=CARTESIAN_POINT('',(0.,0.,10.));
#778=CARTESIAN_POINT('',(0.,25.000000372529,10.0000001490116));
#779=CARTESIAN_POINT('',(0.,30.0000004470348,10.));
#780=CARTESIAN_POINT('',(-5.00000007450581,25.000000372529,10.0000001490116));
#781=CARTESIAN_POINT('',(-23.,25.000000372529,10.));
#782=CARTESIAN_POINT('',(-5.00000007450581,12.0000001788139,10.));
#783=CARTESIAN_POINT('Origin',(-23.,25.000000372529,5.00000007450581));
#784=CARTESIAN_POINT('',(35.0000005215406,25.000000372529,0.));
#785=CARTESIAN_POINT('Origin',(35.0000005215406,25.000000372529,5.00000007450581));
#786=CARTESIAN_POINT('',(30.0000004470348,25.000000372529,0.));
#787=CARTESIAN_POINT('',(-3.99999988824129,25.000000372529,0.));
#788=CARTESIAN_POINT('Origin',(30.0000004470348,25.000000372529,5.00000007450581));
#789=CARTESIAN_POINT('Origin',(-23.,25.000000372529,5.00000007450581));
#790=CARTESIAN_POINT('',(-5.00000007450581,25.000000372529,0.));
#791=CARTESIAN_POINT('Origin',(-5.00000007450581,25.000000372529,5.00000007450581));
#792=CARTESIAN_POINT('',(0.,25.000000372529,0.));
#793=CARTESIAN_POINT('Origin',(0.,25.000000372529,5.00000007450581));
#794=CARTESIAN_POINT('',(-3.99999988824129,25.000000372529,0.));
#795=CARTESIAN_POINT('Origin',(-5.00000007450581,30.0000004470348,0.));
#796=CARTESIAN_POINT('',(-5.00000007450581,12.0000001788139,0.));
#797=CARTESIAN_POINT('Origin',(15.0000002235174,7.50000011175871,0.));
#798=CARTESIAN_POINT('',(0.,0.,0.));
#799=CARTESIAN_POINT('',(0.,30.0000004470348,0.));
#800=CARTESIAN_POINT('',(30.0000004470348,0.,0.));
#801=CARTESIAN_POINT('',(0.,0.,0.));
#802=CARTESIAN_POINT('',(30.0000004470348,0.,0.));
#803=CARTESIAN_POINT('',(35.0000005215406,12.0000001788139,0.));
#804=CARTESIAN_POINT('',(20.0000004470348,-15.0000002235174,0.));
#805=CARTESIAN_POINT('Origin',(20.0000004470348,-5.00000022351742,0.));
#806=CARTESIAN_POINT('',(20.0000004470348,-15.0000002235174,0.));
#807=CARTESIAN_POINT('Origin',(35.0000005215406,-5.00000007450581,0.));
#808=CARTESIAN_POINT('Origin',(0.,0.,0.));
#809=CARTESIAN_POINT('',(0.,0.,0.));
#810=CARTESIAN_POINT('Origin',(30.0000004470348,0.,0.));
#811=CARTESIAN_POINT('',(30.0000004470348,0.,0.));
#812=CARTESIAN_POINT('Origin',(30.0000004470348,30.0000004470348,0.));
#813=CARTESIAN_POINT('Origin',(20.0000004470348,-5.00000022351742,0.));
#814=CARTESIAN_POINT('',(20.0000004470348,-15.0000002235174,0.));
#815=CARTESIAN_POINT('Origin',(6.99999995529651,-15.0000002235174,0.));
#816=UNCERTAINTY_MEASURE_WITH_UNIT(LENGTH_MEASURE(0.01),#820,
'DISTANCE_ACCURACY_VALUE',
'Maximum model space distance between geometric entities at asserted c
onnectivities');
#817=UNCERTAINTY_MEASURE_WITH_UNIT(LENGTH_MEASURE(0.01),#820,
'DISTANCE_ACCURACY_VALUE',
'Maximum model space distance between geometric entities at asserted c
onnectivities');
#818=(
GEOMETRIC_REPRESENTATION_CONTEXT(3)
GLOBAL_UNCERTAINTY_ASSIGNED_CONTEXT((#816))
GLOBAL_UNIT_ASSIGNED_CONTEXT((#820,#822,#823))
REPRESENTATION_CONTEXT('','3D')
);
#819=(
GEOMETRIC_REPRESENTATION_CONTEXT(3)
GLOBAL_UNCERTAINTY_ASSIGNED_CONTEXT((#817))
GLOBAL_UNIT_ASSIGNED_CONTEXT((#820,#822,#823))
REPRESENTATION_CONTEXT('','3D')
);
#820=(
LENGTH_UNIT()
NAMED_UNIT(*)
SI_UNIT(.MILLI.,.METRE.)
);
#821=(
LENGTH_UNIT()
NAMED_UNIT(*)
SI_UNIT($,.METRE.)
);
#822=(
NAMED_UNIT(*)
PLANE_ANGLE_UNIT()
SI_UNIT($,.RADIAN.)
);
#823=(
NAMED_UNIT(*)
SI_UNIT($,.STERADIAN.)
SOLID_ANGLE_UNIT()
);
#824=SHAPE_DEFINITION_REPRESENTATION(#825,#826);
#825=PRODUCT_DEFINITION_SHAPE('',$,#828);
#826=SHAPE_REPRESENTATION('',(#492),#818);
#827=PRODUCT_DEFINITION_CONTEXT('part definition',#832,'design');
#828=PRODUCT_DEFINITION('coxa','coxa',#829,#827);
#829=PRODUCT_DEFINITION_FORMATION('',$,#834);
#830=PRODUCT_RELATED_PRODUCT_CATEGORY('coxa','coxa',(#834));
#831=APPLICATION_PROTOCOL_DEFINITION('international standard',
'automotive_design',2009,#832);
#832=APPLICATION_CONTEXT(
'Core Data for Automotive Mechanical Design Process');
#833=PRODUCT_CONTEXT('part definition',#832,'mechanical');
#834=PRODUCT('coxa','coxa',$,(#833));
#835=PRESENTATION_STYLE_ASSIGNMENT((#836));
#836=SURFACE_STYLE_USAGE(.BOTH.,#837);
#837=SURFACE_SIDE_STYLE('',(#838));
#838=SURFACE_STYLE_FILL_AREA(#839);
#839=FILL_AREA_STYLE('Steel - Satin',(#840));
#840=FILL_AREA_STYLE_COLOUR('Steel - Satin',#841);
#841=COLOUR_RGB('Steel - Satin',0.627450980392157,0.627450980392157,0.627450980392157);
ENDSEC;
END-ISO-10303-21;
