ISO-10303-21;
HEADER;
/* Generated by software containing ST-Developer
 * from STEP Tools, Inc. (www.steptools.com) 
 */

FILE_DESCRIPTION(
/* description */ (''),
/* implementation_level */ '2;1');

FILE_NAME(
/* name */ 'tibia.step',
/* time_stamp */ '2026-08-23T19:56:17+05:30',
/* author */ (''),
/* organization */ (''),
/* preprocessor_version */ 'ST-DEVELOPER v20.1',
/* originating_system */ 'Autodesk Translation Framework v15.8.0.0',
/* authorisation */ '');

FILE_SCHEMA (('AUTOMOTIVE_DESIGN { 1 0 10303 214 3 1 1 }'));
ENDSEC;

DATA;
#10=MECHANICAL_DESIGN_GEOMETRIC_PRESENTATION_REPRESENTATION('',(#13),#640);
#11=SHAPE_REPRESENTATION_RELATIONSHIP('SRR','None',#647,#12);
#12=ADVANCED_BREP_SHAPE_REPRESENTATION('',(#14),#639);
#13=STYLED_ITEM('',(#656),#14);
#14=MANIFOLD_SOLID_BREP('Body1',#384);
#15=FACE_BOUND('',#67,.T.);
#16=FACE_BOUND('',#70,.T.);
#17=CIRCLE('',#412,3.5);
#18=CIRCLE('',#413,3.5);
#19=CIRCLE('',#416,3.5);
#20=CIRCLE('',#417,3.5);
#21=CYLINDRICAL_SURFACE('',#403,5.00000007450581);
#22=CYLINDRICAL_SURFACE('',#405,5.00000007450581);
#23=CYLINDRICAL_SURFACE('',#411,3.5);
#24=CYLINDRICAL_SURFACE('',#415,3.5);
#25=ELLIPSE('',#400,5.27046284548331,5.00000007450581);
#26=ELLIPSE('',#402,5.34000242039569,5.00000007450581);
#27=ELLIPSE('',#404,5.27046284548331,5.00000007450581);
#28=ELLIPSE('',#406,5.27046284548331,5.00000007450581);
#29=FACE_OUTER_BOUND('',#50,.T.);
#30=FACE_OUTER_BOUND('',#51,.T.);
#31=FACE_OUTER_BOUND('',#52,.T.);
#32=FACE_OUTER_BOUND('',#53,.T.);
#33=FACE_OUTER_BOUND('',#54,.T.);
#34=FACE_OUTER_BOUND('',#55,.T.);
#35=FACE_OUTER_BOUND('',#56,.T.);
#36=FACE_OUTER_BOUND('',#57,.T.);
#37=FACE_OUTER_BOUND('',#58,.T.);
#38=FACE_OUTER_BOUND('',#59,.T.);
#39=FACE_OUTER_BOUND('',#60,.T.);
#40=FACE_OUTER_BOUND('',#61,.T.);
#41=FACE_OUTER_BOUND('',#62,.T.);
#42=FACE_OUTER_BOUND('',#63,.T.);
#43=FACE_OUTER_BOUND('',#64,.T.);
#44=FACE_OUTER_BOUND('',#65,.T.);
#45=FACE_OUTER_BOUND('',#66,.T.);
#46=FACE_OUTER_BOUND('',#68,.T.);
#47=FACE_OUTER_BOUND('',#69,.T.);
#48=FACE_OUTER_BOUND('',#71,.T.);
#49=FACE_OUTER_BOUND('',#72,.T.);
#50=EDGE_LOOP('',(#244,#245,#246,#247,#248,#249,#250));
#51=EDGE_LOOP('',(#251,#252,#253,#254,#255,#256));
#52=EDGE_LOOP('',(#257,#258,#259,#260,#261,#262));
#53=EDGE_LOOP('',(#263,#264,#265,#266));
#54=EDGE_LOOP('',(#267,#268,#269,#270));
#55=EDGE_LOOP('',(#271,#272,#273,#274,#275,#276));
#56=EDGE_LOOP('',(#277,#278,#279,#280,#281,#282));
#57=EDGE_LOOP('',(#283,#284,#285,#286,#287,#288));
#58=EDGE_LOOP('',(#289,#290,#291,#292));
#59=EDGE_LOOP('',(#293,#294,#295,#296));
#60=EDGE_LOOP('',(#297));
#61=EDGE_LOOP('',(#298,#299,#300,#301));
#62=EDGE_LOOP('',(#302));
#63=EDGE_LOOP('',(#303,#304,#305,#306));
#64=EDGE_LOOP('',(#307,#308,#309,#310));
#65=EDGE_LOOP('',(#311,#312,#313,#314));
#66=EDGE_LOOP('',(#315,#316,#317,#318));
#67=EDGE_LOOP('',(#319));
#68=EDGE_LOOP('',(#320,#321,#322,#323,#324,#325));
#69=EDGE_LOOP('',(#326,#327,#328,#329));
#70=EDGE_LOOP('',(#330));
#71=EDGE_LOOP('',(#331,#332,#333,#334));
#72=EDGE_LOOP('',(#335,#336,#337,#338,#339,#340,#341,#342,#343,#344,#345));
#73=LINE('',#534,#116);
#74=LINE('',#536,#117);
#75=LINE('',#538,#118);
#76=LINE('',#540,#119);
#77=LINE('',#542,#120);
#78=LINE('',#544,#121);
#79=LINE('',#545,#122);
#80=LINE('',#548,#123);
#81=LINE('',#550,#124);
#82=LINE('',#552,#125);
#83=LINE('',#554,#126);
#84=LINE('',#560,#127);
#85=LINE('',#562,#128);
#86=LINE('',#563,#129);
#87=LINE('',#566,#130);
#88=LINE('',#571,#131);
#89=LINE('',#574,#132);
#90=LINE('',#576,#133);
#91=LINE('',#578,#134);
#92=LINE('',#579,#135);
#93=LINE('',#582,#136);
#94=LINE('',#584,#137);
#95=LINE('',#586,#138);
#96=LINE('',#587,#139);
#97=LINE('',#590,#140);
#98=LINE('',#592,#141);
#99=LINE('',#593,#142);
#100=LINE('',#596,#143);
#101=LINE('',#597,#144);
#102=LINE('',#602,#145);
#103=LINE('',#609,#146);
#104=LINE('',#614,#147);
#105=LINE('',#615,#148);
#106=LINE('',#618,#149);
#107=LINE('',#619,#150);
#108=LINE('',#622,#151);
#109=LINE('',#623,#152);
#110=LINE('',#626,#153);
#111=LINE('',#627,#154);
#112=LINE('',#629,#155);
#113=LINE('',#632,#156);
#114=LINE('',#633,#157);
#115=LINE('',#635,#158);
#116=VECTOR('',#431,10.);
#117=VECTOR('',#432,10.);
#118=VECTOR('',#433,10.);
#119=VECTOR('',#434,10.);
#120=VECTOR('',#435,10.);
#121=VECTOR('',#436,10.);
#122=VECTOR('',#437,10.);
#123=VECTOR('',#440,10.);
#124=VECTOR('',#441,10.);
#125=VECTOR('',#442,10.);
#126=VECTOR('',#443,10.);
#127=VECTOR('',#450,10.);
#128=VECTOR('',#451,10.);
#129=VECTOR('',#452,10.);
#130=VECTOR('',#455,10.);
#131=VECTOR('',#462,10.);
#132=VECTOR('',#465,10.);
#133=VECTOR('',#466,10.);
#134=VECTOR('',#467,10.);
#135=VECTOR('',#468,10.);
#136=VECTOR('',#471,10.);
#137=VECTOR('',#472,10.);
#138=VECTOR('',#473,10.);
#139=VECTOR('',#474,10.);
#140=VECTOR('',#477,10.);
#141=VECTOR('',#478,10.);
#142=VECTOR('',#479,10.);
#143=VECTOR('',#482,10.);
#144=VECTOR('',#483,10.);
#145=VECTOR('',#488,3.5);
#146=VECTOR('',#497,3.5);
#147=VECTOR('',#504,10.);
#148=VECTOR('',#505,10.);
#149=VECTOR('',#508,10.);
#150=VECTOR('',#509,10.);
#151=VECTOR('',#512,10.);
#152=VECTOR('',#513,10.);
#153=VECTOR('',#516,10.);
#154=VECTOR('',#517,10.);
#155=VECTOR('',#520,10.);
#156=VECTOR('',#523,10.);
#157=VECTOR('',#524,10.);
#158=VECTOR('',#527,10.);
#159=VERTEX_POINT('',#532);
#160=VERTEX_POINT('',#533);
#161=VERTEX_POINT('',#535);
#162=VERTEX_POINT('',#537);
#163=VERTEX_POINT('',#539);
#164=VERTEX_POINT('',#541);
#165=VERTEX_POINT('',#543);
#166=VERTEX_POINT('',#547);
#167=VERTEX_POINT('',#549);
#168=VERTEX_POINT('',#551);
#169=VERTEX_POINT('',#553);
#170=VERTEX_POINT('',#557);
#171=VERTEX_POINT('',#559);
#172=VERTEX_POINT('',#561);
#173=VERTEX_POINT('',#565);
#174=VERTEX_POINT('',#569);
#175=VERTEX_POINT('',#573);
#176=VERTEX_POINT('',#575);
#177=VERTEX_POINT('',#577);
#178=VERTEX_POINT('',#581);
#179=VERTEX_POINT('',#583);
#180=VERTEX_POINT('',#585);
#181=VERTEX_POINT('',#589);
#182=VERTEX_POINT('',#591);
#183=VERTEX_POINT('',#595);
#184=VERTEX_POINT('',#599);
#185=VERTEX_POINT('',#601);
#186=VERTEX_POINT('',#606);
#187=VERTEX_POINT('',#608);
#188=VERTEX_POINT('',#613);
#189=VERTEX_POINT('',#617);
#190=VERTEX_POINT('',#621);
#191=VERTEX_POINT('',#625);
#192=VERTEX_POINT('',#631);
#193=EDGE_CURVE('',#159,#160,#73,.T.);
#194=EDGE_CURVE('',#161,#159,#74,.T.);
#195=EDGE_CURVE('',#162,#161,#75,.T.);
#196=EDGE_CURVE('',#162,#163,#76,.T.);
#197=EDGE_CURVE('',#164,#163,#77,.T.);
#198=EDGE_CURVE('',#165,#164,#78,.T.);
#199=EDGE_CURVE('',#165,#160,#79,.T.);
#200=EDGE_CURVE('',#164,#166,#80,.T.);
#201=EDGE_CURVE('',#167,#166,#81,.T.);
#202=EDGE_CURVE('',#168,#167,#82,.T.);
#203=EDGE_CURVE('',#168,#169,#83,.T.);
#204=EDGE_CURVE('',#169,#165,#25,.T.);
#205=EDGE_CURVE('',#163,#170,#26,.T.);
#206=EDGE_CURVE('',#170,#171,#84,.T.);
#207=EDGE_CURVE('',#171,#172,#85,.T.);
#208=EDGE_CURVE('',#166,#172,#86,.T.);
#209=EDGE_CURVE('',#173,#169,#87,.T.);
#210=EDGE_CURVE('',#160,#173,#27,.T.);
#211=EDGE_CURVE('',#174,#162,#28,.T.);
#212=EDGE_CURVE('',#170,#174,#88,.T.);
#213=EDGE_CURVE('',#161,#175,#89,.T.);
#214=EDGE_CURVE('',#176,#175,#90,.T.);
#215=EDGE_CURVE('',#177,#176,#91,.T.);
#216=EDGE_CURVE('',#177,#174,#92,.T.);
#217=EDGE_CURVE('',#178,#168,#93,.T.);
#218=EDGE_CURVE('',#179,#178,#94,.T.);
#219=EDGE_CURVE('',#180,#179,#95,.T.);
#220=EDGE_CURVE('',#173,#180,#96,.T.);
#221=EDGE_CURVE('',#181,#177,#97,.T.);
#222=EDGE_CURVE('',#182,#181,#98,.T.);
#223=EDGE_CURVE('',#171,#182,#99,.T.);
#224=EDGE_CURVE('',#159,#183,#100,.T.);
#225=EDGE_CURVE('',#175,#183,#101,.T.);
#226=EDGE_CURVE('',#184,#184,#17,.T.);
#227=EDGE_CURVE('',#184,#185,#102,.T.);
#228=EDGE_CURVE('',#185,#185,#18,.T.);
#229=EDGE_CURVE('',#186,#186,#19,.T.);
#230=EDGE_CURVE('',#186,#187,#103,.T.);
#231=EDGE_CURVE('',#187,#187,#20,.T.);
#232=EDGE_CURVE('',#182,#188,#104,.T.);
#233=EDGE_CURVE('',#172,#188,#105,.T.);
#234=EDGE_CURVE('',#189,#167,#106,.T.);
#235=EDGE_CURVE('',#178,#189,#107,.T.);
#236=EDGE_CURVE('',#190,#189,#108,.T.);
#237=EDGE_CURVE('',#179,#190,#109,.T.);
#238=EDGE_CURVE('',#191,#190,#110,.T.);
#239=EDGE_CURVE('',#180,#191,#111,.T.);
#240=EDGE_CURVE('',#183,#191,#112,.T.);
#241=EDGE_CURVE('',#192,#176,#113,.T.);
#242=EDGE_CURVE('',#181,#192,#114,.T.);
#243=EDGE_CURVE('',#188,#192,#115,.T.);
#244=ORIENTED_EDGE('',*,*,#193,.F.);
#245=ORIENTED_EDGE('',*,*,#194,.F.);
#246=ORIENTED_EDGE('',*,*,#195,.F.);
#247=ORIENTED_EDGE('',*,*,#196,.T.);
#248=ORIENTED_EDGE('',*,*,#197,.F.);
#249=ORIENTED_EDGE('',*,*,#198,.F.);
#250=ORIENTED_EDGE('',*,*,#199,.T.);
#251=ORIENTED_EDGE('',*,*,#198,.T.);
#252=ORIENTED_EDGE('',*,*,#200,.T.);
#253=ORIENTED_EDGE('',*,*,#201,.F.);
#254=ORIENTED_EDGE('',*,*,#202,.F.);
#255=ORIENTED_EDGE('',*,*,#203,.T.);
#256=ORIENTED_EDGE('',*,*,#204,.T.);
#257=ORIENTED_EDGE('',*,*,#197,.T.);
#258=ORIENTED_EDGE('',*,*,#205,.T.);
#259=ORIENTED_EDGE('',*,*,#206,.T.);
#260=ORIENTED_EDGE('',*,*,#207,.T.);
#261=ORIENTED_EDGE('',*,*,#208,.F.);
#262=ORIENTED_EDGE('',*,*,#200,.F.);
#263=ORIENTED_EDGE('',*,*,#204,.F.);
#264=ORIENTED_EDGE('',*,*,#209,.F.);
#265=ORIENTED_EDGE('',*,*,#210,.F.);
#266=ORIENTED_EDGE('',*,*,#199,.F.);
#267=ORIENTED_EDGE('',*,*,#205,.F.);
#268=ORIENTED_EDGE('',*,*,#196,.F.);
#269=ORIENTED_EDGE('',*,*,#211,.F.);
#270=ORIENTED_EDGE('',*,*,#212,.F.);
#271=ORIENTED_EDGE('',*,*,#195,.T.);
#272=ORIENTED_EDGE('',*,*,#213,.T.);
#273=ORIENTED_EDGE('',*,*,#214,.F.);
#274=ORIENTED_EDGE('',*,*,#215,.F.);
#275=ORIENTED_EDGE('',*,*,#216,.T.);
#276=ORIENTED_EDGE('',*,*,#211,.T.);
#277=ORIENTED_EDGE('',*,*,#209,.T.);
#278=ORIENTED_EDGE('',*,*,#203,.F.);
#279=ORIENTED_EDGE('',*,*,#217,.F.);
#280=ORIENTED_EDGE('',*,*,#218,.F.);
#281=ORIENTED_EDGE('',*,*,#219,.F.);
#282=ORIENTED_EDGE('',*,*,#220,.F.);
#283=ORIENTED_EDGE('',*,*,#212,.T.);
#284=ORIENTED_EDGE('',*,*,#216,.F.);
#285=ORIENTED_EDGE('',*,*,#221,.F.);
#286=ORIENTED_EDGE('',*,*,#222,.F.);
#287=ORIENTED_EDGE('',*,*,#223,.F.);
#288=ORIENTED_EDGE('',*,*,#206,.F.);
#289=ORIENTED_EDGE('',*,*,#194,.T.);
#290=ORIENTED_EDGE('',*,*,#224,.T.);
#291=ORIENTED_EDGE('',*,*,#225,.F.);
#292=ORIENTED_EDGE('',*,*,#213,.F.);
#293=ORIENTED_EDGE('',*,*,#226,.F.);
#294=ORIENTED_EDGE('',*,*,#227,.T.);
#295=ORIENTED_EDGE('',*,*,#228,.F.);
#296=ORIENTED_EDGE('',*,*,#227,.F.);
#297=ORIENTED_EDGE('',*,*,#226,.T.);
#298=ORIENTED_EDGE('',*,*,#229,.F.);
#299=ORIENTED_EDGE('',*,*,#230,.T.);
#300=ORIENTED_EDGE('',*,*,#231,.F.);
#301=ORIENTED_EDGE('',*,*,#230,.F.);
#302=ORIENTED_EDGE('',*,*,#229,.T.);
#303=ORIENTED_EDGE('',*,*,#223,.T.);
#304=ORIENTED_EDGE('',*,*,#232,.T.);
#305=ORIENTED_EDGE('',*,*,#233,.F.);
#306=ORIENTED_EDGE('',*,*,#207,.F.);
#307=ORIENTED_EDGE('',*,*,#217,.T.);
#308=ORIENTED_EDGE('',*,*,#202,.T.);
#309=ORIENTED_EDGE('',*,*,#234,.F.);
#310=ORIENTED_EDGE('',*,*,#235,.F.);
#311=ORIENTED_EDGE('',*,*,#218,.T.);
#312=ORIENTED_EDGE('',*,*,#235,.T.);
#313=ORIENTED_EDGE('',*,*,#236,.F.);
#314=ORIENTED_EDGE('',*,*,#237,.F.);
#315=ORIENTED_EDGE('',*,*,#219,.T.);
#316=ORIENTED_EDGE('',*,*,#237,.T.);
#317=ORIENTED_EDGE('',*,*,#238,.F.);
#318=ORIENTED_EDGE('',*,*,#239,.F.);
#319=ORIENTED_EDGE('',*,*,#228,.T.);
#320=ORIENTED_EDGE('',*,*,#193,.T.);
#321=ORIENTED_EDGE('',*,*,#210,.T.);
#322=ORIENTED_EDGE('',*,*,#220,.T.);
#323=ORIENTED_EDGE('',*,*,#239,.T.);
#324=ORIENTED_EDGE('',*,*,#240,.F.);
#325=ORIENTED_EDGE('',*,*,#224,.F.);
#326=ORIENTED_EDGE('',*,*,#221,.T.);
#327=ORIENTED_EDGE('',*,*,#215,.T.);
#328=ORIENTED_EDGE('',*,*,#241,.F.);
#329=ORIENTED_EDGE('',*,*,#242,.F.);
#330=ORIENTED_EDGE('',*,*,#231,.T.);
#331=ORIENTED_EDGE('',*,*,#222,.T.);
#332=ORIENTED_EDGE('',*,*,#242,.T.);
#333=ORIENTED_EDGE('',*,*,#243,.F.);
#334=ORIENTED_EDGE('',*,*,#232,.F.);
#335=ORIENTED_EDGE('',*,*,#243,.T.);
#336=ORIENTED_EDGE('',*,*,#241,.T.);
#337=ORIENTED_EDGE('',*,*,#214,.T.);
#338=ORIENTED_EDGE('',*,*,#225,.T.);
#339=ORIENTED_EDGE('',*,*,#240,.T.);
#340=ORIENTED_EDGE('',*,*,#238,.T.);
#341=ORIENTED_EDGE('',*,*,#236,.T.);
#342=ORIENTED_EDGE('',*,*,#234,.T.);
#343=ORIENTED_EDGE('',*,*,#201,.T.);
#344=ORIENTED_EDGE('',*,*,#208,.T.);
#345=ORIENTED_EDGE('',*,*,#233,.T.);
#346=PLANE('',#398);
#347=PLANE('',#399);
#348=PLANE('',#401);
#349=PLANE('',#407);
#350=PLANE('',#408);
#351=PLANE('',#409);
#352=PLANE('',#410);
#353=PLANE('',#414);
#354=PLANE('',#418);
#355=PLANE('',#419);
#356=PLANE('',#420);
#357=PLANE('',#421);
#358=PLANE('',#422);
#359=PLANE('',#423);
#360=PLANE('',#424);
#361=PLANE('',#425);
#362=PLANE('',#426);
#363=ADVANCED_FACE('',(#29),#346,.F.);
#364=ADVANCED_FACE('',(#30),#347,.T.);
#365=ADVANCED_FACE('',(#31),#348,.T.);
#366=ADVANCED_FACE('',(#32),#21,.F.);
#367=ADVANCED_FACE('',(#33),#22,.F.);
#368=ADVANCED_FACE('',(#34),#349,.T.);
#369=ADVANCED_FACE('',(#35),#350,.F.);
#370=ADVANCED_FACE('',(#36),#351,.F.);
#371=ADVANCED_FACE('',(#37),#352,.T.);
#372=ADVANCED_FACE('',(#38),#23,.T.);
#373=ADVANCED_FACE('',(#39),#353,.T.);
#374=ADVANCED_FACE('',(#40),#24,.T.);
#375=ADVANCED_FACE('',(#41),#354,.F.);
#376=ADVANCED_FACE('',(#42),#355,.T.);
#377=ADVANCED_FACE('',(#43),#356,.T.);
#378=ADVANCED_FACE('',(#44),#357,.T.);
#379=ADVANCED_FACE('',(#45,#15),#358,.T.);
#380=ADVANCED_FACE('',(#46),#359,.T.);
#381=ADVANCED_FACE('',(#47,#16),#360,.T.);
#382=ADVANCED_FACE('',(#48),#361,.T.);
#383=ADVANCED_FACE('',(#49),#362,.T.);
#384=CLOSED_SHELL('',(#363,#364,#365,#366,#367,#368,#369,#370,#371,#372,
#373,#374,#375,#376,#377,#378,#379,#380,#381,#382,#383));
#385=DERIVED_UNIT_ELEMENT(#387,1.);
#386=DERIVED_UNIT_ELEMENT(#642,-3.);
#387=(
MASS_UNIT()
NAMED_UNIT(*)
SI_UNIT(.KILO.,.GRAM.)
);
#388=DERIVED_UNIT((#385,#386));
#389=MEASURE_REPRESENTATION_ITEM('density measure',
POSITIVE_RATIO_MEASURE(7850.),#388);
#390=PROPERTY_DEFINITION_REPRESENTATION(#395,#392);
#391=PROPERTY_DEFINITION_REPRESENTATION(#396,#393);
#392=REPRESENTATION('material name',(#394),#639);
#393=REPRESENTATION('density',(#389),#639);
#394=DESCRIPTIVE_REPRESENTATION_ITEM('Steel','Steel');
#395=PROPERTY_DEFINITION('material property','material name',#649);
#396=PROPERTY_DEFINITION('material property','density of part',#649);
#397=AXIS2_PLACEMENT_3D('',#530,#427,#428);
#398=AXIS2_PLACEMENT_3D('',#531,#429,#430);
#399=AXIS2_PLACEMENT_3D('',#546,#438,#439);
#400=AXIS2_PLACEMENT_3D('',#555,#444,#445);
#401=AXIS2_PLACEMENT_3D('',#556,#446,#447);
#402=AXIS2_PLACEMENT_3D('',#558,#448,#449);
#403=AXIS2_PLACEMENT_3D('',#564,#453,#454);
#404=AXIS2_PLACEMENT_3D('',#567,#456,#457);
#405=AXIS2_PLACEMENT_3D('',#568,#458,#459);
#406=AXIS2_PLACEMENT_3D('',#570,#460,#461);
#407=AXIS2_PLACEMENT_3D('',#572,#463,#464);
#408=AXIS2_PLACEMENT_3D('',#580,#469,#470);
#409=AXIS2_PLACEMENT_3D('',#588,#475,#476);
#410=AXIS2_PLACEMENT_3D('',#594,#480,#481);
#411=AXIS2_PLACEMENT_3D('',#598,#484,#485);
#412=AXIS2_PLACEMENT_3D('',#600,#486,#487);
#413=AXIS2_PLACEMENT_3D('',#603,#489,#490);
#414=AXIS2_PLACEMENT_3D('',#604,#491,#492);
#415=AXIS2_PLACEMENT_3D('',#605,#493,#494);
#416=AXIS2_PLACEMENT_3D('',#607,#495,#496);
#417=AXIS2_PLACEMENT_3D('',#610,#498,#499);
#418=AXIS2_PLACEMENT_3D('',#611,#500,#501);
#419=AXIS2_PLACEMENT_3D('',#612,#502,#503);
#420=AXIS2_PLACEMENT_3D('',#616,#506,#507);
#421=AXIS2_PLACEMENT_3D('',#620,#510,#511);
#422=AXIS2_PLACEMENT_3D('',#624,#514,#515);
#423=AXIS2_PLACEMENT_3D('',#628,#518,#519);
#424=AXIS2_PLACEMENT_3D('',#630,#521,#522);
#425=AXIS2_PLACEMENT_3D('',#634,#525,#526);
#426=AXIS2_PLACEMENT_3D('',#636,#528,#529);
#427=DIRECTION('axis',(0.,0.,1.));
#428=DIRECTION('refdir',(1.,0.,0.));
#429=DIRECTION('center_axis',(0.,0.196116135138184,0.98058067569092));
#430=DIRECTION('ref_axis',(0.,-0.98058067569092,0.196116135138184));
#431=DIRECTION('',(0.3106848830006,0.9320546490018,-0.18641092980036));
#432=DIRECTION('',(1.,0.,0.));
#433=DIRECTION('',(0.3106848830006,-0.9320546490018,0.18641092980036));
#434=DIRECTION('',(1.,0.,0.));
#435=DIRECTION('',(-0.345124094421928,0.920330918458474,-0.184066183691695));
#436=DIRECTION('',(-0.3106848830006,-0.9320546490018,0.18641092980036));
#437=DIRECTION('',(1.,0.,0.));
#438=DIRECTION('center_axis',(-0.948683298050514,0.316227766016838,0.));
#439=DIRECTION('ref_axis',(-0.316227766016838,-0.948683298050514,0.));
#440=DIRECTION('',(0.,0.,1.));
#441=DIRECTION('',(-0.316227766016838,-0.948683298050514,0.));
#442=DIRECTION('',(0.,0.,1.));
#443=DIRECTION('',(-0.316227766016838,-0.948683298050514,0.));
#444=DIRECTION('center_axis',(0.948683298050514,-0.316227766016838,0.));
#445=DIRECTION('ref_axis',(0.316227766016838,0.948683298050514,0.));
#446=DIRECTION('center_axis',(0.936329177569045,0.351123441588392,0.));
#447=DIRECTION('ref_axis',(-0.351123441588392,0.936329177569045,0.));
#448=DIRECTION('center_axis',(-0.936329177569045,-0.351123441588392,0.));
#449=DIRECTION('ref_axis',(-0.351123441588392,0.936329177569045,0.));
#450=DIRECTION('',(-0.351123441588392,0.936329177569045,0.));
#451=DIRECTION('',(0.,0.,1.));
#452=DIRECTION('',(-0.351123441588392,0.936329177569045,0.));
#453=DIRECTION('center_axis',(1.,0.,0.));
#454=DIRECTION('ref_axis',(0.,1.,0.));
#455=DIRECTION('',(-1.,0.,0.));
#456=DIRECTION('center_axis',(-0.948683298050514,0.316227766016838,0.));
#457=DIRECTION('ref_axis',(0.316227766016838,0.948683298050514,0.));
#458=DIRECTION('center_axis',(1.,0.,0.));
#459=DIRECTION('ref_axis',(0.,1.,0.));
#460=DIRECTION('center_axis',(0.948683298050514,0.316227766016838,0.));
#461=DIRECTION('ref_axis',(-0.316227766016838,0.948683298050514,0.));
#462=DIRECTION('',(-1.,0.,0.));
#463=DIRECTION('center_axis',(-0.948683298050514,-0.316227766016838,0.));
#464=DIRECTION('ref_axis',(0.316227766016838,-0.948683298050514,0.));
#465=DIRECTION('',(0.,0.,1.));
#466=DIRECTION('',(0.316227766016838,-0.948683298050514,0.));
#467=DIRECTION('',(0.,0.,1.));
#468=DIRECTION('',(0.316227766016838,-0.948683298050514,0.));
#469=DIRECTION('center_axis',(0.,0.,1.));
#470=DIRECTION('ref_axis',(1.,0.,0.));
#471=DIRECTION('',(0.,-1.,0.));
#472=DIRECTION('',(-1.,0.,0.));
#473=DIRECTION('',(0.,1.,0.));
#474=DIRECTION('',(0.316227766016838,0.948683298050514,0.));
#475=DIRECTION('center_axis',(0.,0.,1.));
#476=DIRECTION('ref_axis',(1.,0.,0.));
#477=DIRECTION('',(0.,-1.,0.));
#478=DIRECTION('',(-1.,0.,0.));
#479=DIRECTION('',(0.,1.,0.));
#480=DIRECTION('center_axis',(0.,-1.,0.));
#481=DIRECTION('ref_axis',(1.,0.,0.));
#482=DIRECTION('',(0.,0.,1.));
#483=DIRECTION('',(1.,0.,0.));
#484=DIRECTION('center_axis',(1.,0.,0.));
#485=DIRECTION('ref_axis',(0.,1.,0.));
#486=DIRECTION('center_axis',(1.,0.,0.));
#487=DIRECTION('ref_axis',(0.,1.,0.));
#488=DIRECTION('',(-1.,0.,0.));
#489=DIRECTION('center_axis',(-1.,0.,0.));
#490=DIRECTION('ref_axis',(0.,1.,0.));
#491=DIRECTION('center_axis',(1.,0.,0.));
#492=DIRECTION('ref_axis',(0.,1.,0.));
#493=DIRECTION('center_axis',(-1.,0.,0.));
#494=DIRECTION('ref_axis',(0.,1.,0.));
#495=DIRECTION('center_axis',(-1.,0.,0.));
#496=DIRECTION('ref_axis',(0.,1.,0.));
#497=DIRECTION('',(1.,0.,0.));
#498=DIRECTION('center_axis',(1.,0.,0.));
#499=DIRECTION('ref_axis',(0.,1.,0.));
#500=DIRECTION('center_axis',(1.,0.,0.));
#501=DIRECTION('ref_axis',(0.,1.,0.));
#502=DIRECTION('center_axis',(1.,0.,0.));
#503=DIRECTION('ref_axis',(0.,1.,0.));
#504=DIRECTION('',(0.,0.,1.));
#505=DIRECTION('',(0.,1.,0.));
#506=DIRECTION('center_axis',(-1.,0.,0.));
#507=DIRECTION('ref_axis',(0.,-1.,0.));
#508=DIRECTION('',(0.,-1.,0.));
#509=DIRECTION('',(0.,0.,1.));
#510=DIRECTION('center_axis',(0.,1.,0.));
#511=DIRECTION('ref_axis',(-1.,0.,0.));
#512=DIRECTION('',(-1.,0.,0.));
#513=DIRECTION('',(0.,0.,1.));
#514=DIRECTION('center_axis',(1.,0.,0.));
#515=DIRECTION('ref_axis',(0.,1.,0.));
#516=DIRECTION('',(0.,1.,0.));
#517=DIRECTION('',(0.,0.,1.));
#518=DIRECTION('center_axis',(0.948683298050514,-0.316227766016838,0.));
#519=DIRECTION('ref_axis',(0.316227766016838,0.948683298050514,0.));
#520=DIRECTION('',(0.316227766016838,0.948683298050514,0.));
#521=DIRECTION('center_axis',(-1.,0.,0.));
#522=DIRECTION('ref_axis',(0.,-1.,0.));
#523=DIRECTION('',(0.,-1.,0.));
#524=DIRECTION('',(0.,0.,1.));
#525=DIRECTION('center_axis',(0.,1.,0.));
#526=DIRECTION('ref_axis',(-1.,0.,0.));
#527=DIRECTION('',(-1.,0.,0.));
#528=DIRECTION('center_axis',(0.,0.,1.));
#529=DIRECTION('ref_axis',(1.,0.,0.));
#530=CARTESIAN_POINT('',(0.,0.,0.));
#531=CARTESIAN_POINT('Origin',(-20.,-110.000001639128,4.00000005960464));
#532=CARTESIAN_POINT('',(20.,-150.,12.0000012724546));
#533=CARTESIAN_POINT('',(33.3333327869574,-110.000001639128,4.00000005960464));
#534=CARTESIAN_POINT('',(24.440154185569,-136.679537443293,9.33590722043772));
#535=CARTESIAN_POINT('',(10.0000007450581,-150.000002235174,12.0000001788139));
#536=CARTESIAN_POINT('',(-5.,-150.,12.0000012724546));
#537=CARTESIAN_POINT('',(-3.33333278695742,-110.000001639128,4.00000005960464));
#538=CARTESIAN_POINT('',(-5.05791480332958,-104.826255590011,2.96525084978135));
#539=CARTESIAN_POINT('',(1.8750006146729,-110.000001639128,4.00000005960464));
#540=CARTESIAN_POINT('',(-10.,-110.000001639128,4.00000005960464));
#541=CARTESIAN_POINT('',(15.,-145.,10.9999997317791));
#542=CARTESIAN_POINT('',(6.78533643594553,-123.094230495855,6.61884583095005));
#543=CARTESIAN_POINT('',(26.6666661202908,-110.000001639128,4.00000005960464));
#544=CARTESIAN_POINT('',(26.1389958844107,-111.583012346768,4.3166022011327));
#545=CARTESIAN_POINT('',(-10.,-110.000001639128,4.00000005960464));
#546=CARTESIAN_POINT('Origin',(30.,-100.,0.));
#547=CARTESIAN_POINT('',(15.,-145.,15.));
#548=CARTESIAN_POINT('',(15.,-145.,0.));
#549=CARTESIAN_POINT('',(30.,-100.,15.));
#550=CARTESIAN_POINT('',(30.,-100.,15.));
#551=CARTESIAN_POINT('',(30.,-100.,0.));
#552=CARTESIAN_POINT('',(30.,-100.,0.));
#553=CARTESIAN_POINT('',(28.2996593064797,-105.101022080561,0.));
#554=CARTESIAN_POINT('',(30.,-100.,0.));
#555=CARTESIAN_POINT('Origin',(26.6666661202908,-110.000001639128,-1.00000001490116));
#556=CARTESIAN_POINT('Origin',(15.,-145.,0.));
#557=CARTESIAN_POINT('',(0.0378832802103335,-105.101022080561,0.));
#558=CARTESIAN_POINT('Origin',(1.8750006146729,-110.000001639128,-1.00000001490116));
#559=CARTESIAN_POINT('',(0.,-105.,0.));
#560=CARTESIAN_POINT('',(15.,-145.,0.));
#561=CARTESIAN_POINT('',(0.,-105.,15.));
#562=CARTESIAN_POINT('',(0.,-105.,0.));
#563=CARTESIAN_POINT('',(15.,-145.,15.));
#564=CARTESIAN_POINT('Origin',(-10.,-110.000001639128,-1.00000001490116));
#565=CARTESIAN_POINT('',(34.9663259731464,-105.101022080561,0.));
#566=CARTESIAN_POINT('',(-10.,-105.101022080561,0.));
#567=CARTESIAN_POINT('Origin',(33.3333327869574,-110.000001639128,-1.00000001490116));
#568=CARTESIAN_POINT('Origin',(-10.,-110.000001639128,-1.00000001490116));
#569=CARTESIAN_POINT('',(-4.96632597314637,-105.101022080561,0.));
#570=CARTESIAN_POINT('Origin',(-3.33333278695742,-110.000001639128,-1.00000001490116));
#571=CARTESIAN_POINT('',(-10.,-105.101022080561,0.));
#572=CARTESIAN_POINT('Origin',(-5.,-105.,0.));
#573=CARTESIAN_POINT('',(10.,-150.,15.));
#574=CARTESIAN_POINT('',(10.,-150.,0.));
#575=CARTESIAN_POINT('',(-5.,-105.,15.));
#576=CARTESIAN_POINT('',(-5.,-105.,15.));
#577=CARTESIAN_POINT('',(-5.,-105.,0.));
#578=CARTESIAN_POINT('',(-5.,-105.,0.));
#579=CARTESIAN_POINT('',(-5.,-105.,0.));
#580=CARTESIAN_POINT('Origin',(15.,-112.5,0.));
#581=CARTESIAN_POINT('',(30.,-75.,0.));
#582=CARTESIAN_POINT('',(30.,-75.,0.));
#583=CARTESIAN_POINT('',(35.,-75.,0.));
#584=CARTESIAN_POINT('',(35.,-75.,0.));
#585=CARTESIAN_POINT('',(35.,-105.,0.));
#586=CARTESIAN_POINT('',(35.,-105.,0.));
#587=CARTESIAN_POINT('',(20.,-150.,0.));
#588=CARTESIAN_POINT('Origin',(15.,-112.5,0.));
#589=CARTESIAN_POINT('',(-5.,-75.,0.));
#590=CARTESIAN_POINT('',(-5.,-75.,0.));
#591=CARTESIAN_POINT('',(0.,-75.,0.));
#592=CARTESIAN_POINT('',(0.,-75.,0.));
#593=CARTESIAN_POINT('',(0.,-105.,0.));
#594=CARTESIAN_POINT('Origin',(10.,-150.,0.));
#595=CARTESIAN_POINT('',(20.,-150.,15.));
#596=CARTESIAN_POINT('',(20.,-150.,0.));
#597=CARTESIAN_POINT('',(10.,-150.,15.));
#598=CARTESIAN_POINT('Origin',(30.,-85.0000012665988,9.00000007450581));
#599=CARTESIAN_POINT('',(45.,-88.5000012665988,9.00000007450581));
#600=CARTESIAN_POINT('Origin',(45.,-85.0000012665988,9.00000007450581));
#601=CARTESIAN_POINT('',(35.,-88.5000012665988,9.00000007450581));
#602=CARTESIAN_POINT('',(30.,-88.5000012665988,9.00000007450581));
#603=CARTESIAN_POINT('Origin',(35.,-85.0000012665988,9.00000007450581));
#604=CARTESIAN_POINT('Origin',(45.,-85.0000012665988,9.00000007450581));
#605=CARTESIAN_POINT('Origin',(0.,-85.0000012665988,9.00000007450581));
#606=CARTESIAN_POINT('',(-15.,-88.5000012665988,9.00000007450581));
#607=CARTESIAN_POINT('Origin',(-15.,-85.0000012665988,9.00000007450581));
#608=CARTESIAN_POINT('',(-5.,-88.5000012665988,9.00000007450581));
#609=CARTESIAN_POINT('',(0.,-88.5000012665988,9.00000007450581));
#610=CARTESIAN_POINT('Origin',(-5.,-85.0000012665988,9.00000007450581));
#611=CARTESIAN_POINT('Origin',(-15.,-85.0000012665988,9.00000007450581));
#612=CARTESIAN_POINT('Origin',(0.,-105.,0.));
#613=CARTESIAN_POINT('',(0.,-75.,15.));
#614=CARTESIAN_POINT('',(0.,-75.,0.));
#615=CARTESIAN_POINT('',(0.,-105.,15.));
#616=CARTESIAN_POINT('Origin',(30.,-75.,0.));
#617=CARTESIAN_POINT('',(30.,-75.,15.));
#618=CARTESIAN_POINT('',(30.,-75.,15.));
#619=CARTESIAN_POINT('',(30.,-75.,0.));
#620=CARTESIAN_POINT('Origin',(35.,-75.,0.));
#621=CARTESIAN_POINT('',(35.,-75.,15.));
#622=CARTESIAN_POINT('',(35.,-75.,15.));
#623=CARTESIAN_POINT('',(35.,-75.,0.));
#624=CARTESIAN_POINT('Origin',(35.,-105.,0.));
#625=CARTESIAN_POINT('',(35.,-105.,15.));
#626=CARTESIAN_POINT('',(35.,-105.,15.));
#627=CARTESIAN_POINT('',(35.,-105.,0.));
#628=CARTESIAN_POINT('Origin',(20.,-150.,0.));
#629=CARTESIAN_POINT('',(20.,-150.,15.));
#630=CARTESIAN_POINT('Origin',(-5.,-75.,0.));
#631=CARTESIAN_POINT('',(-5.,-75.,15.));
#632=CARTESIAN_POINT('',(-5.,-75.,15.));
#633=CARTESIAN_POINT('',(-5.,-75.,0.));
#634=CARTESIAN_POINT('Origin',(0.,-75.,0.));
#635=CARTESIAN_POINT('',(0.,-75.,15.));
#636=CARTESIAN_POINT('Origin',(15.,-112.5,15.));
#637=UNCERTAINTY_MEASURE_WITH_UNIT(LENGTH_MEASURE(0.01),#641,
'DISTANCE_ACCURACY_VALUE',
'Maximum model space distance between geometric entities at asserted c
onnectivities');
#638=UNCERTAINTY_MEASURE_WITH_UNIT(LENGTH_MEASURE(0.01),#641,
'DISTANCE_ACCURACY_VALUE',
'Maximum model space distance between geometric entities at asserted c
onnectivities');
#639=(
GEOMETRIC_REPRESENTATION_CONTEXT(3)
GLOBAL_UNCERTAINTY_ASSIGNED_CONTEXT((#637))
GLOBAL_UNIT_ASSIGNED_CONTEXT((#641,#643,#644))
REPRESENTATION_CONTEXT('','3D')
);
#640=(
GEOMETRIC_REPRESENTATION_CONTEXT(3)
GLOBAL_UNCERTAINTY_ASSIGNED_CONTEXT((#638))
GLOBAL_UNIT_ASSIGNED_CONTEXT((#641,#643,#644))
REPRESENTATION_CONTEXT('','3D')
);
#641=(
LENGTH_UNIT()
NAMED_UNIT(*)
SI_UNIT(.MILLI.,.METRE.)
);
#642=(
LENGTH_UNIT()
NAMED_UNIT(*)
SI_UNIT($,.METRE.)
);
#643=(
NAMED_UNIT(*)
PLANE_ANGLE_UNIT()
SI_UNIT($,.RADIAN.)
);
#644=(
NAMED_UNIT(*)
SI_UNIT($,.STERADIAN.)
SOLID_ANGLE_UNIT()
);
#645=SHAPE_DEFINITION_REPRESENTATION(#646,#647);
#646=PRODUCT_DEFINITION_SHAPE('',$,#649);
#647=SHAPE_REPRESENTATION('',(#397),#639);
#648=PRODUCT_DEFINITION_CONTEXT('part definition',#653,'design');
#649=PRODUCT_DEFINITION('tibia','tibia',#650,#648);
#650=PRODUCT_DEFINITION_FORMATION('',$,#655);
#651=PRODUCT_RELATED_PRODUCT_CATEGORY('tibia','tibia',(#655));
#652=APPLICATION_PROTOCOL_DEFINITION('international standard',
'automotive_design',2009,#653);
#653=APPLICATION_CONTEXT(
'Core Data for Automotive Mechanical Design Process');
#654=PRODUCT_CONTEXT('part definition',#653,'mechanical');
#655=PRODUCT('tibia','tibia',$,(#654));
#656=PRESENTATION_STYLE_ASSIGNMENT((#657));
#657=SURFACE_STYLE_USAGE(.BOTH.,#658);
#658=SURFACE_SIDE_STYLE('',(#659));
#659=SURFACE_STYLE_FILL_AREA(#660);
#660=FILL_AREA_STYLE('Steel - Satin',(#661));
#661=FILL_AREA_STYLE_COLOUR('Steel - Satin',#662);
#662=COLOUR_RGB('Steel - Satin',0.627450980392157,0.627450980392157,0.627450980392157);
ENDSEC;
END-ISO-10303-21;
